<?xml version="1.0"?>
<svg xmlns="http://www.w3.org/2000/svg" viewBox="0 0 64 64" width="512" height="512"><g id="gift_box-celebration-surprise-4" data-name="gift box-celebration-surprise"><rect x="7" y="27" width="50" height="31" style="fill:#ffda44"/><polygon points="46 13 52 13 47 18 36 18 36 14 46 6 46 13" style="fill:#ea348b"/><polygon points="18 13 18 6 28 14 28 18 17 18 12 13 18 13" style="fill:#ea348b"/><rect x="7" y="37" width="21" height="6" style="fill:#e13957"/><rect x="36" y="37" width="21" height="6" style="fill:#e13957"/><rect x="28" y="12" width="8" height="6" style="fill:#dc1c3f"/><rect x="3" y="18" width="58" height="9" style="fill:#ff9811"/><rect x="7" y="27" width="50" height="2" style="fill:#dfbf3c"/><rect x="28" y="27" width="8" height="31" style="fill:#d80027"/><rect x="3" y="18" width="58" height="2" style="fill:#ffaf46"/><rect x="28" y="18" width="8" height="9" style="fill:#bd0022"/><rect x="9" y="51" width="9" height="3" rx="1.5" style="fill:#ffeb99"/><rect x="19" y="51" width="4" height="3" rx="1.5" style="fill:#ffeb99"/><rect x="28" y="27" width="8" height="2" style="fill:#a2001d"/><polygon points="22 18 21 15 26 18 22 18" style="fill:#f178b2"/><polygon points="42 18 43 15 38 18 42 18" style="fill:#f178b2"/></g></svg>
