<svg fill="currentColor" xmlns="http://www.w3.org/2000/svg" viewBox="0 0 40 40">
    <path d="M29 0H11C5 0 0 5 0 11v18c0 6 5 11 11 11h18c6.1 0 11-5 11-11V11c0-6-5-11-11-11zm7.5 29c0 4.1-3.4 7.5-7.5 7.5H11c-4.1 0-7.5-3.4-7.5-7.5V11c0-4.1 3.4-7.5 7.5-7.5h18c4.1 0 7.5 3.4 7.5 7.5v18z"/>
    <path d="M20 9.7C14.3 9.7 9.7 14.3 9.7 20c0 5.7 4.6 10.3 10.3 10.3S30.3 25.7 30.3 20c0-5.7-4.6-10.3-10.3-10.3zm0 17.1c-3.7 0-6.8-3-6.8-6.8 0-3.7 3-6.8 6.8-6.8s6.8 3 6.8 6.8c0 3.7-3.1 6.8-6.8 6.8zM30.7 6.7c-.7 0-1.4.3-1.8.8-.5.5-.8 1.2-.8 1.8 0 .7.3 1.4.8 1.8.5.5 1.2.8 1.8.8.7 0 1.4-.3 1.8-.8.5-.5.8-1.2.8-1.8 0-.7-.3-1.4-.8-1.8-.4-.5-1.1-.8-1.8-.8z"/>
</svg>
