<svg enable-background="new 0 0 110 110" height="512" viewBox="0 0 110 110" width="512" xmlns="http://www.w3.org/2000/svg"><path d="m86.5503159 55.0003815c0 17.3970337-14.1532898 31.5503311-31.5503273 31.5503311s-31.5503254-14.1532974-31.5503254-31.5503311c0-17.0625038 13.6149158-31.0123062 30.5612926-31.5215607.319973-.0287647.6545029-.0287647.9890327-.0287647.3345337 0 .6690636 0 .9890327.0287647 16.9461976.5092545 30.5612947 14.4590569 30.5612947 31.5215607z" fill="#f7be56"/><g fill="#dc8744"><path d="m56.4254761 26.2573471c0 1.1197205-.1745453 2.1236687-.4655762 2.8218517-.3199692-.0145607-.6399384-.0145607-.9599113-.0145607-.3199692 0-.6399422 0-.9600906.0145607-.2910271-.6981831-.4653931-1.7021313-.4653931-2.8218517 0-1.0909538.1599846-2.0799885.436451-2.7785263.319973-.0287647.6545029-.0287647.9890327-.0287647.3345337 0 .6690636 0 .9890327.0287647.2764702.6985378.4364548 1.6875725.4364548 2.7785263z"/><path d="m44.611454 28.1624641c.4554329 1.0229149.704319 2.0110626.7224274 2.7672558-.2982292.1168423-.590538.2469864-.8828468.3771305-.292305.1301422-.5846138.2602863-.8711624.4038048-.5498428-.5194511-1.1174774-1.3656807-1.5729103-2.3885956-.4437332-.9966373-.699852-1.9652367-.7314072-2.7158318.2806053-.1564217.586216-.2924881.8918266-.4285545.3056068-.1360645.6112175-.272131.915226-.3759975.5366859.5256977 1.0851135 1.364151 1.5288467 2.3607883z"/><path d="m34.593689 34.7080727c.8321152.7492371 1.4613991 1.550724 1.7855148 2.2341728-.2249222.2280426-.4390259.4658279-.6531258.7036133-.2141037.2377815-.4282036.4755669-.6316071.7232285-.7135849-.2509003-1.5763397-.7930908-2.4084549-1.5423317-.8107357-.7299919-1.4386806-1.5106773-1.7728024-2.1835442.1927261-.2570305.4165707-.5056381.6404152-.7542419.2238464-.2486038.447691-.4972115.6831684-.7157478.7041093.261959 1.5461542.804859 2.3568918 1.534851z"/><path d="m28.1043453 44.7623711c1.0649166.3460121 1.9657898.8222542 2.5398693 1.3147888-.1127243.2998085-.2116013.6041183-.3104763.908432-.098877.3043098-.1977539.6086197-.2828369.9175987-.7539444.0610313-1.7626381-.0833702-2.8275547-.4293823-1.0375614-.3371239-1.9287491-.7949066-2.5076637-1.2737045.0715179-.3131981.1748943-.6313553.2782707-.9495163.1033745-.3181572.2067509-.6363144.3329849-.931736.7497826-.0470772 1.7398453.1063957 2.7774067.4435196z"/><path d="m26.2654858 56.5868874c1.1135864-.1170425 2.1302795-.0483932 2.8550587.1680603.0189648.3197403.0524101.6379585.0858574.9561729.0334454.3182182.0668926.6364365.1148376.9533119-.6639385.3624115-1.6441593.6407661-2.7577457.7578087-1.08498.1140366-2.0853176.0583076-2.8089275-.1436272-.0620537-.3152122-.0970211-.6479111-.1319885-.9806099-.0349693-.332695-.0699368-.6653938-.0747757-.986618.6658133-.3479729 1.6327056-.6104622 2.7176837-.7244987z"/><path d="m29.3950672 68.1370544c.9697056-.5598602 1.926424-.910675 2.6765804-1.0077286.147377.2843781.3073616.5614853.4673462.8385849.1599884.2771072.319973.5542068.4926567.8241806-.4591293.6011353-1.2413902 1.2541122-2.2110977 1.8139725-.9447937.5454788-1.8813133.9014435-2.6245003 1.0112839-.1848965-.2627182-.3521614-.5524292-.5194263-.8421478-.1672668-.289711-.3345318-.579422-.4696064-.8709106.4667187-.5886918 1.2432537-1.2217637 2.1880474-1.7672349z"/><path d="m36.9519577 77.4157333c.6581535-.9058685 1.389473-1.6154861 2.0353012-2.0092697.2503014.1998596.5091629.3879318.7680244.576004s.5177231.376152.7852898.5525513c-.1749344.7359009-.6239738 1.6506042-1.2821312 2.5564728-.6412468.8826065-1.3520164 1.588707-1.9862747 1.991333-.2757683-.1648026-.5464096-.3614349-.8170509-.5580673s-.5412827-.3932648-.7832375-.6046066c.186924-.7276307.6388321-1.6218186 1.2800789-2.5044175z"/><path d="m47.6295013 82.818573c.2328033-1.095253.6122665-2.0409775 1.0420952-2.6633911.3099518.0807648.6229324.1472931.9359093.2138214.3129807.0665207.6259575.133049.9421387.1853714.1395073.7434311.1013298 1.7616959-.1314697 2.8569489-.2268257 1.0671082-.5889435 2.0012665-1.0046043 2.6270599-.3189583-.0383911-.6461792-.1079407-.9734001-.1774902-.3272209-.0695572-.6544418-.1391068-.961441-.2337723-.1251909-.7407532-.07605-1.7414398.1507719-2.808548z"/><path d="m59.5814552 83.4113541c-.2328033-1.0952454-.2708054-2.1135483-.1312981-2.8569794.3160057-.0522842.6289864-.1188126.9419632-.1853409.3129807-.0665207.6259575-.133049.9360847-.2138519.4298286.6224136.8091164 1.5681763 1.0419197 2.6634216.2268219 1.0671158.2759666 2.0678024.1507721 2.8085556-.3069954.0946655-.6342163.1642151-.9614372.2337646-.3272209.0695572-.6544418.1391068-.9734001.1774979-.4156608-.6257934-.7777824-1.5599518-1.0046043-2.6270675z"/><path d="m70.7412109 79.0915985c-.6581497-.9058762-1.107048-1.8206787-1.2819824-2.5565796.2674179-.1763.5262833-.3643723.785141-.5524445.2588654-.1880722.5177307-.376152.7681732-.5761108.6458282.3937836 1.3769989 1.1035004 2.0351562 2.0093765.6412506.8825989 1.0931549 1.7767792 1.2800751 2.5044174-.241951.2113419-.5125885.4079742-.7832336.6046066-.2706375.1966324-.5412827.3932648-.8170547.5580673-.6342545-.4026259-1.3450242-1.108734-1.9862748-1.9913329z"/><path d="m79.1791611 70.6062164c-.9697113-.5598602-1.7518768-1.2129898-2.2110138-1.8141251.1725998-.2698212.3325806-.5469208.492569-.824028.1599884-.2770996.3199692-.5541992.4674377-.8387375.7501526.0970535 1.7067871.4480209 2.6764908 1.0078812.9447937.5454788 1.7213287 1.1785431 2.1880493 1.7672424-.1350784.291481-.3023453.581192-.4696045.8709106-.1672668.289711-.3345337.579422-.5194321.8421402-.7431869-.1098403-1.6797027-.4658049-2.6244964-1.0112838z"/><path d="m83.4362869 59.4224167c-1.1135864-.1170425-2.0937881-.3955727-2.7577209-.7579842.0479202-.3166962.0813675-.6349144.1148148-.9531326s.0668945-.6364365.0858765-.9563522c.7247772-.2164536 1.7414551-.2849274 2.8550415-.1678848 1.0849762.1140366 2.0518723.3765297 2.7176819.7244987-.004837.3212242-.0398102.653923-.0747757.9866219s-.0699387.6653976-.1319885.9806061c-.7236101.2019385-1.7239457.2576636-2.8089296.1436271z"/><path d="m82.7765121 47.4739761c-1.0649185.3460121-2.0736694.4902458-2.8276138.4292145-.0850296-.3088112-.1839066-.613121-.2827835-.9174309-.0988693-.3043098-.1977463-.6086197-.3105316-.9085999.5740814-.4925346 1.4750137-.968605 2.5399246-1.314621 1.0375595-.3371201 2.027626-.490593 2.7774124-.4435196.1262283.2954216.2296066.6135788.3329849.9317398.1033707.3181572.206749.6363144.2782669.9495125-.5789108.478798-1.4701003.9365808-2.5076599 1.2737046z"/><path d="m77.3139038 36.826889c-.8321152.7492371-1.6949921 1.2912979-2.408577 1.5421982-.2032776-.2475281-.4173813-.4853134-.631485-.7230988s-.4282074-.4755669-.653244-.703743c.3241119-.6834488.9535217-1.4848022 1.7856293-2.2340431.8107376-.7299919 1.6527863-1.272892 2.3568954-1.5348473.2354813.2185364.4593201.4671402.6831665.7157478.2238464.2486038.4476929.4972076.640419.7542419-.3341216.672867-.9620666 1.4535524-1.7728042 2.1835443z"/><path d="m67.9930038 29.3221321c-.4554367 1.0229149-1.0232315 1.869072-1.5730743 2.3885231-.2863846-.143446-.5786972-.2735901-.8710022-.4037342-.292305-.1301422-.5846176-.2602863-.8830109-.3772011.0181122-.7561932.2671585-1.7442684.7225952-2.7671833.4437256-.9966373.992157-1.8350906 1.5288467-2.3607883.3040085.1038666.6096191.2399311.9152222.3759975.3056107.1360664.6112213.2721329.8918304.4285545-.0315551.7505951-.2876815 1.7191945-.7314071 2.7158318z"/></g><path d="m81.334137 55.0003853c0 14.5182762-11.8156891 26.3339653-26.3341446 26.3339653-14.5186424 0-26.3343258-11.8156891-26.3343258-26.3339653 0-14.1937485 11.2989635-25.8028202 25.3594799-26.31954.3250694-.0147839.6499557-.0147839.9748459-.0147839.3248863 0 .6497726 0 .9746628.0147839 14.0606918.5167198 25.3594818 12.1257915 25.3594818 26.31954z" fill="#fcd462"/><path d="m53.4169388 72.2518463v-2.7461548c-2.6995621-.0473938-5.4939117-.8853226-7.1242638-2.0493164l1.1184959-3.1204224c1.6758537 1.1184998 4.0986366 2.0019226 6.7072029 2.0019226 3.3062057 0 5.5394096-1.9090347 5.5394096-4.5630989 0-2.5611687-1.8161392-4.1441307-5.2626305-5.5413055-4.7469826-1.8616371-7.6816216-4.0038452-7.6816216-8.0550842 0-3.8654556 2.74506-6.7981987 7.02948-7.4977341v-2.9320869h2.8891373v2.7463036c2.7943535.0928917 4.7014885.837925 6.0512695 1.630352l-1.1639977 3.0730286c-.9782143-.5592499-2.8853493-1.5829582-5.8654823-1.5829582-3.5867805 0-4.9365616 2.1422081-4.9365616 4.0038452 0 2.420887 1.7213516 3.6322746 5.7744865 5.3081284 4.7962723 1.9564247 7.2152634 4.3773117 7.2152634 8.5214424 0 3.6796722-2.5592766 7.1242676-7.3555489 7.9166946v2.8864441h-2.9346387z" fill="#dc8744"/><g fill="#3a556a"><path d="m74.0684738 17.5106182c-.1573715 0-.3168335-.0349159-.4679565-.1089134-.9379959-.4590988-1.8978882-.8858871-2.8535995-1.268383-.5471725-.2188663-.8129349-.8400307-.5940704-1.3871975.2199097-.5482082.8410721-.812932 1.388237-.5940657 1.0036621.402297 2.0125351.8504524 2.9974289 1.3330011.5294495.2589922.7483215.8983955.4898453 1.4278431-.1855165.3783264-.5648805.5977154-.9598848.5977154z"/><path d="m85.5193634 25.7217598c-.2741089 0-.5482101-.104744-.7566528-.3147507-1.6196136-1.62743-3.3851395-3.130312-5.2486267-4.4664402-.4783783-.3434124-.5888596-1.0099125-.2449265-1.4888134.3428955-.4789009 1.008873-.5904198 1.4893341-.2454433 1.9583359 1.4043922 3.8155746 2.9844017 5.5175247 4.6957283.4158478.4179306.4137573 1.0932903-.0041733 1.5091362-.2084426.2068825-.4804611.3105831-.7524795.3105831z"/><path d="m91.826889 33.8120041c-.3626938 0-.716011-.1844711-.9161148-.5174637-.5294495-.8827591-1.103714-1.7608318-1.7061157-2.6102428-.3408051-.4809856-.2282486-1.146965.2532578-1.4882927.4783783-.3402843 1.1474838-.227726 1.4872513.2532597.6336746.8937054 1.2381592 1.8171139 1.7957458 2.7457314.3032913.5054779.1396561 1.1610374-.3658142 1.4648438-.1719666.1031798-.3616562.1521643-.5482102.1521643z"/><path d="m36.528698 94.8465805c-.1542511 0-.3105812-.0333481-.4596214-.1042175-.9848976-.4710846-1.9625015-.9843826-2.9057121-1.5252914-.5106888-.2933884-.6878662-.9452972-.393959-1.4565048.2928619-.5122528.944252-.6894302 1.4570236-.3944855.8963127.5143356 1.8259735 1.0020981 2.7639732 1.4502563.5315323.2542953.7566528.891098.5023499 1.4231491-.1834298.3835373-.5659257.6070938-.9640542.6070938z"/><path d="m28.0564785 89.50103c-.2355423 0-.472126-.0776443-.6691055-.2371063-1.810339-1.4611969-3.5195827-3.0797653-5.0808315-4.8103714-.3950005-.4377365-.3606071-1.1125717.0771255-1.5070572.4366894-.3950043 1.1110077-.3616486 1.5070515.0771255 1.4872513 1.6477509 3.1141586 3.1886749 4.8369503 4.58004.4585781.3699875.5304909 1.0422211.1605015 1.5008011-.2115708.2610779-.5200673.3965683-.8316918.3965683z"/><path d="m18.9391251 79.3867874c-.3501873 0-.6920357-.1714478-.8963108-.4867172-.5971928-.9207993-1.1631203-1.8681793-1.6821461-2.8166046-.2834835-.5169373-.0937996-1.1657257.4231415-1.4486847.516943-.2840042 1.1662464-.093277 1.4486885.4231415.4940128.902565 1.0328407 1.8046036 1.600853 2.6811142.321003.4945374.1792622 1.1558228-.3147526 1.4763031-.1792603.1162109-.3804093.1714477-.5794735.1714477z"/><path d="m55.550293 11.1296844-7.578003-4.5581049c-.5044556-.3049316-1.1610107-.1408691-1.4642944.3642578-.3043823.5053711-.1407471 1.1608882.3637085 1.4648433l4.5505371 2.7368164c-22.8300171 1.8081055-40.4456787 20.7163086-40.4456787 43.862793 0 5.3457031.9525757 10.5722656 2.8296509 15.5349121.161499.4267578.5679932.6899414.9984131.6899414.1260986 0 .2532349-.0224609.3773193-.0698242.5513306-.2084961.8295898-.8244629.6211548-1.3757324-1.786377-4.7202148-2.6920776-9.692627-2.6920776-14.7792969 0-22.3564453 17.2727661-40.5512695 39.4721069-41.7954102l-4.1793823 4.8251953c-.3856201.4455566-.3376465 1.119873.1083984 1.5056152.2011719.1750488.4502563.260498.6983032.260498.2980957 0 .5961304-.125.8067017-.3684082l5.7894897-6.6848145c.2063599-.2382812.2970581-.5554199.2470093-.8666992-.0489502-.3110351-.2334595-.5839843-.5033569-.746582z"/><path d="m99.0234375 55.0002899c0-5.7045898-1.0547485-11.2424316-3.1350098-16.4592285-.2188721-.548584-.8421021-.8144531-1.3861694-.5961914-.5482178.2185059-.8150024.8391113-.5961304 1.3862305 1.979187 4.9650879 2.9828491 10.2365723 2.9828491 15.6691895 0 22.291748-17.5041504 40.5664062-39.4888916 41.8149414l4.196106-4.8447266c.3856201-.4455566.3377075-1.119873-.1083984-1.5053711-.4429321-.3857422-1.1182861-.3378906-1.5049438.1079102l-5.7895508 6.6845703c-.2063599.2382812-.2969971.5556641-.2470093.8666992.0490112.3110352.2334595.5842285.503418.7468262l7.5780029 4.5581055c.171936.1037598.3616333.1525879.5492554.1525879.3616333 0 .7149658-.1843262.9150391-.5168457.3043213-.5053711.140686-1.1608887-.3637085-1.4648438l-4.5585327-2.7419434c22.6088866-1.8249512 40.4536742-20.7871094 40.4536742-43.8579102z"/></g></svg>