<svg xmlns="http://www.w3.org/2000/svg" xmlns:xlink="http://www.w3.org/1999/xlink" viewBox="0 0 549.5 391.75"><defs><style>.cls-1{fill:#dbd9da;}.cls-2{fill:#322e2f;}.cls-3{fill:#423e41;}.cls-4{fill:#a82b0e;}.cls-5{fill:#fbd225;}.cls-6{fill:url(#Безымянный_градиент_89);}.cls-7{fill:#785d43;}</style><linearGradient id="Безымянный_градиент_89" x1="357.54" y1="179.08" x2="357.54" y2="346.42" gradientTransform="matrix(-1, 0, 0, 1, 549.5, 0)" gradientUnits="userSpaceOnUse"><stop offset="0" stop-color="#fff" stop-opacity="0"/><stop offset="0.09" stop-color="#fefcf8" stop-opacity="0.04"/><stop offset="0.24" stop-color="#fcf5e5" stop-opacity="0.13"/><stop offset="0.41" stop-color="#f8e8c5" stop-opacity="0.29"/><stop offset="0.62" stop-color="#f2d79a" stop-opacity="0.51"/><stop offset="0.84" stop-color="#ebc263" stop-opacity="0.78"/><stop offset="1" stop-color="#e6b138"/></linearGradient></defs><title>Ресурс 2</title><g id="Слой_2" data-name="Слой 2"><g id="Слой_18" data-name="Слой 18"><path class="cls-1" d="M332.27,38.71h34.54a4.62,4.62,0,0,1,4.62,4.62v0A4.63,4.63,0,0,1,366.81,48H332.27a4.62,4.62,0,0,1-4.62-4.62v0a4.62,4.62,0,0,1,4.62-4.62Z" transform="translate(699.08 86.67) rotate(180)"/><rect class="cls-1" x="339.46" y="31.25" width="20.17" height="28.83" transform="translate(699.08 91.33) rotate(-180)"/></g><g id="Слой_20" data-name="Слой 20"><polygon class="cls-2" points="196.13 207.08 196.13 214.83 148.13 212.75 147.83 199.78 196.13 207.08"/></g><g id="Слой_15" data-name="Слой 15"><polygon class="cls-1" points="207.25 231.5 207.25 213.37 133 209.67 123 223.42 207.25 231.5"/></g><g id="Слой_19" data-name="Слой 19"><polygon class="cls-3" points="263.7 202.28 271.42 197.72 248.11 160.58 240.38 165.13 263.7 202.28"/></g><g id="Слой_6" data-name="Слой 6"><rect class="cls-4" y="225.75" width="16.33" height="34" rx="8.17" transform="translate(16.33 485.5) rotate(-180)"/></g><g id="Слой_12" data-name="Слой 12"><polygon class="cls-1" points="293.04 213.98 275.56 169.75 247.67 196.08 272.01 255.75 293.04 213.98"/></g><g id="Слой_11" data-name="Слой 11"><polygon class="cls-2" points="124.75 220.33 217 228.58 217 251.08 268.75 251.08 294.75 199.83 322.5 264.08 139.14 267.86 119.29 251.73 124.75 220.33"/></g><g id="Слой_10" data-name="Слой 10"><path class="cls-2" d="M230.85,67.75a11.86,11.86,0,0,1,11.05,7.46l74,183.79H147.26l-20.61-16.76L131,71.72v-.3a3.67,3.67,0,0,1,3.67-3.67h96.18m0-12H134.67A15.66,15.66,0,0,0,119,71.42l-4.5,176.41L143,271H330.33v-8.25L253,70.73a23.91,23.91,0,0,0-22.18-15Z"/></g><g id="Слой_16" data-name="Слой 16"><rect class="cls-2" x="335" y="55.75" width="31.33" height="207" transform="translate(701.33 318.5) rotate(-180)"/><rect class="cls-2" x="325.67" y="55.75" width="14.92" height="17.17" transform="translate(666.25 128.67) rotate(-180)"/></g><g id="Слой_5" data-name="Слой 5"><path class="cls-5" d="M18.75,346.42H360.83a14.75,14.75,0,0,0,14.75-14.75V269.44a9.64,9.64,0,0,0-9.69-9.64l-211.67,1A32.07,32.07,0,0,1,121,231.29l-4.19-52.21H42.17c-17,0-34,14-33.84,36.34V336A10.43,10.43,0,0,0,18.75,346.42Z"/></g><g id="Слой_5_копия_" data-name="Слой 5 (копия)"><path class="cls-6" d="M18.75,346.42H360.83a14.75,14.75,0,0,0,14.75-14.75V269.44a9.64,9.64,0,0,0-9.69-9.64l-211.67,1A32.07,32.07,0,0,1,121,231.29l-4.19-52.21H42.17c-17,0-34,14-33.84,36.34V336A10.43,10.43,0,0,0,18.75,346.42Z"/></g><g id="Слой_9" data-name="Слой 9"><rect class="cls-3" x="93.5" y="205.33" width="6.25" height="42.5" rx="3.12" transform="translate(193.25 453.17) rotate(180)"/><rect class="cls-3" x="83.33" y="205.33" width="6.25" height="42.5" rx="3.12" transform="translate(172.92 453.17) rotate(180)"/><rect class="cls-3" x="73.54" y="205.33" width="6.25" height="42.5" rx="3.12" transform="translate(153.33 453.17) rotate(-180)"/><rect class="cls-3" x="63.38" y="205.33" width="6.25" height="42.5" rx="3.12" transform="translate(133 453.17) rotate(-180)"/><rect class="cls-3" x="52.79" y="205.33" width="6.25" height="42.5" rx="3.12" transform="translate(111.83 453.17) rotate(180)"/><rect class="cls-3" x="42.63" y="205.33" width="6.25" height="42.5" rx="3.12" transform="translate(91.5 453.17) rotate(180)"/><rect class="cls-3" x="32.63" y="205.33" width="6.25" height="42.5" rx="3.12" transform="translate(71.5 453.17) rotate(180)"/></g><g id="Слой_7" data-name="Слой 7"><circle class="cls-2" cx="298.46" cy="331.38" r="60.37"/><circle class="cls-1" cx="298.46" cy="330.63" r="26.45"/></g><g id="Слой_7_копия_" data-name="Слой 7 (копия)"><circle class="cls-2" cx="65.52" cy="354.62" r="37.13"/><circle class="cls-1" cx="65.52" cy="354.17" r="16.26"/></g><g id="Слой_14" data-name="Слой 14"><path class="cls-2" d="M225.42,178.67h0a4.41,4.41,0,0,0,5.94,1.39l36.7-21.64a4.12,4.12,0,0,0,1.46-5.75h0a4.41,4.41,0,0,0-5.94-1.39l-36.7,21.64A4.12,4.12,0,0,0,225.42,178.67Z"/></g><g id="Слой_17" data-name="Слой 17"><polygon class="cls-2" points="549.5 357.08 372.5 357.08 370.25 102.08 374.75 102.08 386 343.08 549.5 351.58 549.5 357.08"/><path class="cls-2" d="M349.54,8a9.67,9.67,0,1,1-9.67,9.67A9.68,9.68,0,0,1,349.54,8m0-8a17.67,17.67,0,1,0,17.67,17.67A17.67,17.67,0,0,0,349.54,0Z"/></g><g id="Слой_13" data-name="Слой 13"><path class="cls-7" d="M146.45,204.57l50.69,4.62c7.85.71,15.15-2.68,15.29-7.63h0c.13-4.95-7-8.73-14.86-8.44l-45.86,1.68a5.32,5.32,0,0,0-5.26,5l-4.07-.66C142.31,201.76,143.55,204.3,146.45,204.57Z"/><path class="cls-7" d="M155.62,198.1l-4.16-52c-.71-8.93-5.38-16.56-10.28-15.89h0c-4.91.67-7.36,9.27-5.65,18.07l6.85,50.8c.63,3.24,3.25,5.43,5.87,5.07l3.08.38C153.94,204.21,155.88,201.39,155.62,198.1Z"/></g><g id="Слой_21" data-name="Слой 21"><rect class="cls-3" x="343.51" y="60.08" width="7.16" height="199.82" transform="translate(694.17 319.98) rotate(-180)"/><rect class="cls-3" x="354.94" y="59.57" width="3.58" height="199.82" transform="translate(713.46 318.96) rotate(-180)"/></g></g></svg>