<?xml version="1.0" encoding="utf-8"?><svg xmlns="http://www.w3.org/2000/svg" xmlns:xlink="http://www.w3.org/1999/xlink"><symbol fill="currentColor" viewBox="0 0 24 24" id="arrow-down" xmlns="http://www.w3.org/2000/svg"><path d="M7.41 7.84L12 12.42l4.59-4.58L18 9.25l-6 6-6-6z"/></symbol><symbol fill="currentColor" viewBox="0 0 12 12" id="arrow-left" xmlns="http://www.w3.org/2000/svg"><path d="M9.7 10.6L5.1 6l4.6-4.6L8.3 0l-6 6 6 6 1.4-1.4z"/></symbol><symbol fill="currentColor" viewBox="0 0 31.5 31.5" id="arrow-left-swiper" xmlns="http://www.w3.org/2000/svg"><path d="M10.3 26.5c.4.4 1.1.4 1.6 0 .4-.4.4-1.1 0-1.6l-8-8h26.6c.6 0 1.1-.5 1.1-1.1s-.5-1.1-1.1-1.1H3.8l8-8c.4-.4.4-1.2 0-1.6-.4-.4-1.2-.4-1.6 0l-10 10c-.4.4-.4 1.1 0 1.6l10.1 9.8z" class="st0"/></symbol><symbol fill="currentColor" viewBox="0 0 12 12" id="arrow-right" xmlns="http://www.w3.org/2000/svg"><path d="M2.3 10.6L6.9 6 2.3 1.4 3.7 0l6 6-6 6-1.4-1.4z"/></symbol><symbol fill="currentColor" viewBox="0 0 31.49 31.49" id="arrow-right-swiper" xmlns="http://www.w3.org/2000/svg"><path d="M21.205 5.007a1.112 1.112 0 00-1.587 0 1.12 1.12 0 000 1.571l8.047 8.047H1.111A1.106 1.106 0 000 15.737c0 .619.492 1.127 1.111 1.127h26.554l-8.047 8.032c-.429.444-.429 1.159 0 1.587a1.112 1.112 0 001.587 0l9.952-9.952a1.093 1.093 0 000-1.571l-9.952-9.953z"/></symbol><symbol fill="currentColor" viewBox="0 0 24 24" id="arrow-up" xmlns="http://www.w3.org/2000/svg"><path d="M7.41 15.41L12 10.83l4.59 4.58L18 14l-6-6-6 6z"/></symbol><symbol fill="currentColor" viewBox="0 0 512 512" id="briefcase" xmlns="http://www.w3.org/2000/svg"><path d="M469.333 106.667H362.667V85.333c0-23.531-19.135-42.667-42.667-42.667H192c-23.531 0-42.667 19.135-42.667 42.667v21.333H42.667C19.135 106.667 0 125.802 0 149.333v64C0 236.865 19.135 256 42.667 256h170.667v-10.667a10.66 10.66 0 0110.667-10.667h64a10.66 10.66 0 0110.667 10.667V256h170.667c23.53 0 42.665-19.135 42.665-42.667v-64c0-23.531-19.135-42.666-42.667-42.666zm-149.333 0H192V85.333h128v21.334zM506.083 267.51a10.68 10.68 0 00-11.188 1.052c-7.583 5.74-16.417 8.771-25.563 8.771H298.667v32A10.66 10.66 0 01288 320h-64a10.66 10.66 0 01-10.667-10.667v-32H42.667c-9.146 0-17.979-3.031-25.563-8.771a10.593 10.593 0 00-11.188-1.052A10.666 10.666 0 000 277.063v149.604c0 23.531 19.135 42.667 42.667 42.667h426.667c23.531 0 42.667-19.135 42.667-42.667V277.063a10.668 10.668 0 00-5.918-9.553z"/></symbol><symbol fill="currentColor" viewBox="0 0 30 16" id="burger" xmlns="http://www.w3.org/2000/svg"><path d="M0 0h30v2H0zM0 14h30v2H0zM0 7h30v2H0z"/></symbol><symbol fill="currentColor" viewBox="0 0 512.001 512.001" id="checklist" xmlns="http://www.w3.org/2000/svg"><path d="M400.003 152H256.001c-5.523 0-10 4.477-10 10s4.477 10 10 10h144.002c5.523 0 10-4.477 10-10s-4.477-10-10-10zM365.011 202.931c-1.86-1.86-4.44-2.93-7.07-2.93s-5.21 1.07-7.07 2.93c-1.86 1.86-2.93 4.44-2.93 7.07s1.07 5.21 2.93 7.07 4.44 2.93 7.07 2.93 5.21-1.07 7.07-2.93c1.86-1.86 2.93-4.44 2.93-7.07s-1.07-5.21-2.93-7.07zM263.061 45.931c-1.86-1.86-4.44-2.93-7.07-2.93s-5.21 1.07-7.07 2.93c-1.86 1.86-2.93 4.44-2.93 7.07s1.07 5.21 2.93 7.07c1.86 1.86 4.44 2.93 7.07 2.93s5.21-1.07 7.07-2.93c1.86-1.86 2.93-4.44 2.93-7.07s-1.07-5.21-2.93-7.07zM315.878 200h-59.877c-5.523 0-10 4.477-10 10s4.477 10 10 10h59.877c5.523 0 10-4.477 10-10s-4.477-10-10-10zM400.003 260H256.001c-5.523 0-10 4.477-10 10s4.477 10 10 10h144.002c5.523 0 10-4.477 10-10s-4.477-10-10-10zM365.011 310.931c-1.86-1.86-4.44-2.93-7.07-2.93s-5.21 1.07-7.07 2.93c-1.86 1.86-2.93 4.44-2.93 7.07s1.07 5.21 2.93 7.07 4.44 2.93 7.07 2.93 5.21-1.07 7.07-2.93c1.86-1.86 2.93-4.44 2.93-7.07s-1.07-5.21-2.93-7.07zM315.878 308h-59.877c-5.523 0-10 4.477-10 10s4.477 10 10 10h59.877c5.523 0 10-4.477 10-10s-4.477-10-10-10zM400.003 368H256.001c-5.523 0-10 4.477-10 10s4.477 10 10 10h144.002c5.523 0 10-4.477 10-10s-4.477-10-10-10zM365.011 418.931c-1.86-1.86-4.44-2.93-7.07-2.93s-5.21 1.07-7.07 2.93c-1.86 1.86-2.93 4.44-2.93 7.07s1.07 5.21 2.93 7.07 4.44 2.93 7.07 2.93 5.21-1.07 7.07-2.93c1.86-1.86 2.93-4.44 2.93-7.07s-1.07-5.21-2.93-7.07zM315.878 416h-59.877c-5.523 0-10 4.477-10 10s4.477 10 10 10h59.877c5.523 0 10-4.477 10-10s-4.477-10-10-10z"/><path d="M419.243 39.001h-76.379C331.823 28.48 316.898 22 300.479 22h-8.76C285.022 8.742 271.263 0 256 0s-29.021 8.742-35.719 22H211.5c-16.419 0-31.343 6.48-42.384 17.001H92.759c-26.885 0-48.758 21.873-48.758 48.758v375.484c0 26.885 21.873 48.758 48.758 48.758h326.483c26.885 0 48.758-21.873 48.758-48.758V87.759c.001-26.885-21.872-48.758-48.757-48.758zM211.501 42h15.586a10 10 0 009.639-7.338C239.111 26.029 247.037 20 256.001 20c8.964 0 16.89 6.029 19.274 14.662A10 10 0 00284.914 42h15.565c21.705 0 39.571 16.75 41.354 38.001H170.147C171.93 58.75 189.797 42 211.501 42zm236.5 421.244c0 15.857-12.901 28.758-28.758 28.758H92.759c-15.857 0-28.758-12.901-28.758-28.758V87.759c0-15.857 12.901-28.758 28.758-28.758h62.347a61.135 61.135 0 00-5.105 24.5v6.5c0 5.523 4.477 10 10 10H351.98c5.523 0 10-4.477 10-10v-6.5a61.139 61.139 0 00-5.105-24.5h62.368c15.857 0 28.758 12.901 28.758 28.758v375.485z"/><path d="M192.41 149.596c-3.905-3.905-10.237-3.905-14.142-.001l-42.762 42.763-13.173-13.174c-3.905-3.904-10.237-3.904-14.143 0-3.905 3.905-3.905 10.237 0 14.143l20.245 20.245a9.968 9.968 0 007.071 2.929 9.966 9.966 0 007.071-2.929l49.833-49.833c3.905-3.905 3.905-10.237 0-14.143zM168.001 368h-48c-5.523 0-10 4.477-10 10v48c0 5.523 4.477 10 10 10h48c5.523 0 10-4.477 10-10v-48c0-5.523-4.477-10-10-10zm-10 48h-28v-28h28v28zM168.001 260h-48c-5.523 0-10 4.477-10 10v48c0 5.523 4.477 10 10 10h48c5.523 0 10-4.477 10-10v-48c0-5.523-4.477-10-10-10zm-10 48h-28v-28h28v28z"/></symbol><symbol fill="currentColor" viewBox="0 0 97.16 97.16" id="clock" xmlns="http://www.w3.org/2000/svg"><path d="M48.58 0C21.793 0 0 21.793 0 48.58s21.793 48.58 48.58 48.58 48.58-21.793 48.58-48.58S75.367 0 48.58 0zm0 86.823c-21.087 0-38.244-17.155-38.244-38.243S27.493 10.337 48.58 10.337 86.824 27.492 86.824 48.58 69.667 86.823 48.58 86.823z"/><path d="M73.898 47.08H52.066V20.83a4 4 0 00-8 0v30.25a4 4 0 004 4h25.832a4 4 0 000-8z"/></symbol><symbol viewBox="0 0 455 455" id="clock-2" xmlns="http://www.w3.org/2000/svg"><path fill="#FF6E1D" d="M227.5 0C101.86 0 0 101.86 0 227.5S101.86 455 227.5 455 455 353.14 455 227.5 353.14 0 227.5 0z"/><path fill="#FFF" d="M213.36 241.64c3.62 3.62 8.62 5.86 14.14 5.86 10.6 0 19.3-8.29 19.95-18.73l98.49-98.5-21.21-21.21-97.23 97.22-65.41-65.4-21.21 21.21 66.67 66.68c.3 5.02 2.47 9.53 5.81 12.87zM227.5 30C336.4 30 425 118.6 425 227.5S336.4 425 227.5 425 30 336.4 30 227.5 118.6 30 227.5 30z"/><path fill="#6DA8D6" d="M228.77 207.55l-1.27-1.27-65.41-65.4-21.21 21.21 66.67 66.68c-.04-.42-.05-.84-.05-1.27l20-20c.43 0 .85.01 1.27.05z"/><path fill="#98D9D5" d="M345.94 130.27l-21.21-21.21-97.23 97.22 1.27 1.27 18.73 19.95c0 .43-.01.85-.05 1.27l98.49-98.5z"/><path fill="#185F8D" d="M220.927 223.467l-95.912 95.912a7.5 7.5 0 005.303 12.803 7.474 7.474 0 005.303-2.197l95.912-95.912-10.606-10.606z"/><path fill="#FFCC75" d="M227.5 247.5c11.028 0 20-8.972 20-20s-8.972-20-20-20-20 8.972-20 20 8.972 20 20 20z"/><path fill="#274B6D" d="M227.5 97.5A7.5 7.5 0 01220 90V60a7.5 7.5 0 0115 0v30a7.5 7.5 0 01-7.5 7.5zM395 235h-30a7.5 7.5 0 010-15h30a7.5 7.5 0 010 15zM227.5 402.5a7.5 7.5 0 01-7.5-7.5v-30a7.5 7.5 0 0115 0v30a7.5 7.5 0 01-7.5 7.5zM90 235H60a7.5 7.5 0 010-15h30a7.5 7.5 0 010 15z"/></symbol><symbol fill="currentColor" viewBox="0 0 24 24" id="close" xmlns="http://www.w3.org/2000/svg"><path d="M19 6.41L17.59 5 12 10.59 6.41 5 5 6.41 10.59 12 5 17.59 6.41 19 12 13.41 17.59 19 19 17.59 13.41 12z"/><path fill="none" d="M0 0h24v24H0z"/></symbol><symbol fill="currentColor" viewBox="-21 -47 682.667 682" id="comment" xmlns="http://www.w3.org/2000/svg"><path d="M552.012-1.332H87.988C39.473-1.332 0 38.141 0 86.656V370.63c0 48.422 39.3 87.824 87.676 87.988v128.871l185.183-128.86h279.153c48.515 0 87.988-39.472 87.988-88V86.657c0-48.515-39.473-87.988-87.988-87.988zM468.703 328.68H171.297v-37.5h297.406zm0-80H171.297v-37.5h297.406zm0-80H171.297v-37.5h297.406zm0 0"/></symbol><symbol fill="currentColor" viewBox="0 0 54 54" id="controls" xmlns="http://www.w3.org/2000/svg"><path d="M13 36H9V1a1 1 0 10-2 0v35H3a1 1 0 00-1 1v12a1 1 0 001 1h4v3a1 1 0 102 0v-3h4a1 1 0 001-1V37a1 1 0 00-1-1zM32 20h-4V1a1 1 0 10-2 0v19h-4a1 1 0 00-1 1v12a1 1 0 001 1h4v19a1 1 0 102 0V34h4a1 1 0 001-1V21a1 1 0 00-1-1zM51 4h-4V1a1 1 0 10-2 0v3h-4a1 1 0 00-1 1v12a1 1 0 001 1h4v35a1 1 0 102 0V18h4a1 1 0 001-1V5a1 1 0 00-1-1z"/></symbol><symbol fill="currentColor" viewBox="0 0 512 512" id="conversation" xmlns="http://www.w3.org/2000/svg"><path d="M346 319c-5.522 0-10 4.477-10 10v69c0 27.57-22.43 50-50 50H178.032c-5.521 0-9.996 4.473-10 9.993l-.014 19.882-23.868-23.867a10.003 10.003 0 00-9.171-6.008H70c-27.57 0-50-22.43-50-50V244c0-27.57 22.43-50 50-50h101c5.522 0 10-4.477 10-10s-4.478-10-10-10H70c-38.598 0-70 31.402-70 70v154c0 38.598 31.402 70 70 70h59.858l41.071 41.071a9.997 9.997 0 0010.894 2.169 10 10 0 006.177-9.233l.024-34.007H286c38.598 0 70-31.402 70-70v-69c0-5.523-4.478-10-10-10z"/><path d="M366.655 0h-25.309C261.202 0 196 65.202 196 145.346s65.202 145.345 145.345 145.345h25.309c12.509 0 24.89-1.589 36.89-4.729l37.387 37.366A10 10 0 00458 316.255v-57.856c15.829-12.819 28.978-29.012 38.206-47.102C506.687 190.751 512 168.562 512 145.346 512 65.202 446.798 0 366.655 0zm75.328 245.535a10.003 10.003 0 00-3.983 7.988v38.6l-24.471-24.458a10.003 10.003 0 00-10.006-2.485c-11.903 3.658-24.307 5.512-36.868 5.512h-25.309c-69.117 0-125.346-56.23-125.346-125.346S272.23 20 341.346 20h25.309C435.771 20 492 76.23 492 145.346c0 39.731-18.23 76.249-50.017 100.189z"/><path d="M399.033 109.421c-1.443-20.935-18.319-37.811-39.255-39.254-11.868-.815-23.194 3.188-31.863 11.281-8.55 7.981-13.453 19.263-13.453 30.954 0 5.523 4.478 10 10 10s10-4.477 10-10c0-6.259 2.522-12.06 7.1-16.333 4.574-4.269 10.552-6.382 16.842-5.948 11.028.76 19.917 9.649 20.677 20.676.768 11.137-6.539 20.979-17.373 23.403-8.778 1.964-14.908 9.592-14.908 18.549v24.025c0 5.523 4.478 10 10 10 5.523 0 10-4.477 9.999-10v-23.226c20.15-4.868 33.669-23.306 32.234-44.127zM363.87 209.26c-1.86-1.86-4.44-2.93-7.07-2.93s-5.21 1.07-7.07 2.93a10.076 10.076 0 00-2.93 7.07c0 2.64 1.071 5.22 2.93 7.08 1.86 1.86 4.44 2.92 7.07 2.92s5.21-1.06 7.07-2.92a10.1 10.1 0 002.93-7.08c0-2.63-1.071-5.21-2.93-7.07zM275 310H64c-5.522 0-10 4.477-10 10s4.478 10 10 10h211c5.523 0 10-4.477 10-10s-4.478-10-10-10zM282.069 368.93C280.21 367.07 277.63 366 275 366s-5.21 1.07-7.07 2.93c-1.861 1.86-2.93 4.44-2.93 7.07s1.07 5.21 2.93 7.07c1.86 1.86 4.44 2.93 7.07 2.93s5.21-1.07 7.069-2.93A10.055 10.055 0 00285 376c0-2.63-1.071-5.21-2.931-7.07zM235.667 366H64c-5.522 0-10 4.477-10 10s4.478 10 10 10h171.667c5.523 0 10-4.477 10-10s-4.478-10-10-10zM210 254H64c-5.522 0-10 4.477-10 10s4.478 10 10 10h146c5.523 0 10-4.477 10-10s-4.478-10-10-10z"/></symbol><symbol viewBox="0 0 512.043 512.043" id="delivery-truck" xmlns="http://www.w3.org/2000/svg"><path fill="#FF7058" d="M436.437 164.8H330.709v191.627h173.227v-86.251l-20.203-69.824c-6.09-21.056-25.376-35.552-47.296-35.552"/><path fill="#84DBFF" d="M478.645 269.291l-18.005-62.24c-3.104-10.699-13.056-18.187-24.203-18.187h-81.664v80.427h123.872z"/><path fill="#CDD6E0" d="M478.667 269.259H354.731v-80.427z"/><path fill="#F2F2F2" d="M478.645 269.291l-18.005-62.24c-3.104-10.699-13.056-18.187-24.203-18.187h-81.664l123.872 80.427z"/><path fill="#FFD15C" d="M32 68.597h266.709c17.664 0 32 14.325 32 32v255.819H0V100.597c0-17.674 14.325-32 32-32"/><path fill="#F2F2F2" d="M216.747 68.651v84.554l-12.374-12.373-12.97 12.971-12.96-12.971-12.96 12.971-12.982-12.971-13.13 12.971-12.95-12.971-12.522 12.523V68.651z"/><path fill="#334A5E" d="M512.043 356.405v36.16h-512v-36.16h53.44c12.48-22.4 36.48-37.547 64-37.547 27.413 0 51.413 15.147 64 37.547H353.43c12.48-22.4 36.363-37.547 63.883-37.547 27.52 0 51.413 15.147 64 37.547h30.73z"/><path fill="#40596B" d="M468.416 392.341c0 28.224-22.88 51.104-51.104 51.104s-51.083-22.88-51.083-51.104 22.869-51.104 51.083-51.104c28.235 0 51.104 22.88 51.104 51.104"/><path fill="#ACB3BA" d="M437.856 392.341c0 11.339-9.195 20.523-20.523 20.523-11.339 0-20.544-9.184-20.544-20.523s9.195-20.523 20.544-20.523c11.328-.01 20.523 9.185 20.523 20.523"/><path fill="#40596B" d="M168.544 392.341c0 28.224-22.891 51.104-51.104 51.104-28.224 0-51.104-22.88-51.104-51.104s22.88-51.104 51.104-51.104c28.213 0 51.104 22.88 51.104 51.104"/><path fill="#ACB3BA" d="M137.963 392.341c0 11.339-9.184 20.523-20.523 20.523s-20.533-9.184-20.533-20.523 9.195-20.523 20.533-20.523 20.523 9.185 20.523 20.523"/></symbol><symbol fill="currentColor" viewBox="0 0 550.795 550.795" id="email" xmlns="http://www.w3.org/2000/svg"><path d="M501.613 491.782c12.381 0 23.109-4.088 32.229-12.16L377.793 323.567a2878.213 2878.213 0 00-10.801 7.767c-11.678 8.604-21.156 15.318-28.434 20.129-7.277 4.822-16.959 9.737-29.045 14.755-12.094 5.024-23.361 7.528-33.813 7.528h-.612c-10.453 0-21.72-2.503-33.813-7.528-12.093-5.018-21.775-9.933-29.045-14.755-7.277-4.811-16.75-11.524-28.434-20.129a1351.934 1351.934 0 00-10.771-7.809L16.946 479.622c9.119 8.072 19.854 12.16 32.234 12.16h452.433zM31.047 225.299C19.37 217.514 9.015 208.598 0 198.555V435.98l137.541-137.541c-27.516-19.21-62.969-43.562-106.494-73.14zM520.059 225.299c-41.865 28.336-77.447 52.73-106.75 73.195l137.486 137.492V198.555c-8.815 9.841-19.059 18.751-30.736 26.744z"/><path d="M501.613 59.013H49.181c-15.784 0-27.919 5.33-36.42 15.979C4.253 85.646.006 98.97.006 114.949c0 12.907 5.636 26.892 16.903 41.959 11.267 15.061 23.256 26.891 35.961 35.496 6.965 4.921 27.969 19.523 63.012 43.801a20367.497 20367.497 0 0149.505 34.395 8855.122 8855.122 0 0131.022 21.701c.985.691 2.534 1.799 4.59 3.269 2.215 1.591 5.018 3.61 8.476 6.107 6.659 4.816 12.191 8.709 16.597 11.683 4.4 2.975 9.731 6.298 15.985 9.988 6.249 3.685 12.143 6.456 17.675 8.299 5.533 1.842 10.655 2.766 15.367 2.766h.612c4.711 0 9.834-.924 15.368-2.766 5.531-1.843 11.42-4.608 17.674-8.299 6.248-3.69 11.572-7.02 15.986-9.988 4.406-2.974 9.938-6.866 16.598-11.683 3.451-2.497 6.254-4.517 8.469-6.102a643.575 643.575 0 014.596-3.274c6.684-4.651 17.1-11.892 31.104-21.616 25.482-17.705 63.01-43.764 112.742-78.281 14.957-10.447 27.453-23.054 37.496-37.803 10.025-14.749 15.051-30.22 15.051-46.408 0-13.525-4.873-25.098-14.598-34.737-9.736-9.627-21.265-14.443-34.584-14.443z"/></symbol><symbol fill="currentColor" viewBox="0 0 96.124 96.123" id="facebook" xmlns="http://www.w3.org/2000/svg"><path d="M72.089.02L59.624 0C45.62 0 36.57 9.285 36.57 23.656v10.907H24.037a1.96 1.96 0 00-1.96 1.961v15.803a1.96 1.96 0 001.96 1.96H36.57v39.876a1.96 1.96 0 001.96 1.96h16.352a1.96 1.96 0 001.96-1.96V54.287h14.654a1.96 1.96 0 001.96-1.96l.006-15.803a1.963 1.963 0 00-1.961-1.961H56.842v-9.246c0-4.444 1.059-6.7 6.848-6.7l8.397-.003a1.96 1.96 0 001.959-1.96V1.98A1.96 1.96 0 0072.089.02z"/></symbol><symbol fill="currentColor" viewBox="0 0 412.4 412.4" id="file" xmlns="http://www.w3.org/2000/svg"><path d="M327.597 0h-200c-24.8 0-44.8 20-45.2 44.8-24 1.2-42.8 21.2-42.8 45.2v277.2c0 24.8 20.4 45.2 45.2 45.2h200c24.8 0 44.8-20 45.2-44.8 24-1.2 42.8-21.2 42.8-45.2V45.6c.4-25.2-20-45.6-45.2-45.6zm-12.4 367.2c0 16.8-13.6 30.4-30.4 30.4h-200c-16.8 0-30-13.6-30-30V90c0-16.8 13.6-30 30-30h161.6v69.6c0 4 3.2 7.6 7.6 7.6h61.2v230zm-53.6-245.2V72l44.4 50h-44.4zm68.8 230.8V129.6c0-.8-.4-2-.4-2.8 0-.4-.4-.8-.4-.8-.4-.4-.4-.8-.8-1.2l-69.2-77.6c-.4-.4-1.2-.8-2-1.2-.4 0-.4-.4-.8-.4-.8-.4-2-.8-3.2-.8h-156c.4-16.4 13.6-29.6 30-29.6h200c16.8 0 30 13.6 30 30v277.6h.4c0 15.6-12.4 28.8-27.6 30z"/><path d="M93.997 137.2h66.8c4 0 7.6-3.2 7.6-7.6 0-4-3.2-7.6-7.6-7.6h-66.8c-4 0-7.6 3.2-7.6 7.6 0 4.4 3.2 7.6 7.6 7.6zM160.397 320.8h-66.4c-4 0-7.6 3.2-7.6 7.6 0 4 3.2 7.6 7.6 7.6h66.8c4 0 7.6-3.2 7.6-7.6-.4-4-3.6-7.6-8-7.6zM86.397 180c0 4 3.2 7.6 7.6 7.6h178.4c4 0 7.6-3.2 7.6-7.6 0-4-3.6-7.6-7.6-7.6h-178.4c-4 0-7.6 3.2-7.6 7.6zM272.397 209.6h-178.4c-4 0-7.6 3.2-7.6 7.6 0 4 3.2 7.6 7.6 7.6h178.4c4 0 7.6-3.2 7.6-7.6 0-4-3.6-7.6-7.6-7.6zM272.397 247.2h-178.4c-4 0-7.6 3.2-7.6 7.6 0 4 3.2 7.6 7.6 7.6h178.4c4 0 7.6-3.2 7.6-7.6 0-4.4-3.6-7.6-7.6-7.6zM272.397 284.4h-178.4c-4 0-7.6 3.2-7.6 7.6 0 4 3.2 7.6 7.6 7.6h178.4c4 0 7.6-3.2 7.6-7.6 0-4.4-3.6-7.6-7.6-7.6z"/></symbol><symbol fill="currentColor" viewBox="0 -56 480 480" id="forklift" xmlns="http://www.w3.org/2000/svg"><path d="M288 272.05c-17.672 0-32 14.325-32 32 0 17.673 14.328 32 32 32s32-14.327 32-32c0-17.675-14.328-32-32-32zm0 48c-8.836 0-16-7.163-16-16 0-8.84 7.164-16 16-16s16 7.16 16 16c0 8.837-7.164 16-16 16zm0 0M112 320.05c0 8.837-7.164 16-16 16s-16-7.163-16-16c0-8.84 7.164-16 16-16s16 7.16 16 16zm0 0M472 312.05h-88v-304a8 8 0 00-16 0v312a8 8 0 008 8h96a8 8 0 000-16zm0 0"/><path d="M351.352 212.898L279.527 45.336C269.922 18.648 234.121.05 208 .05h-88a45.921 45.921 0 00-34.602 13.398A45.936 45.936 0 0072 48.051v104H40c-24.305 0-40 18.84-40 48v96c.234 17.574 14.426 31.765 32 32h16.719c3.883 23.086 23.87 39.992 47.281 39.992s43.398-16.906 47.281-39.992h85.43c11.523 28.34 41.488 44.562 71.52 38.719 30.027-5.848 51.718-32.13 51.769-62.72v-88a8.024 8.024 0 00-.656-3.152zM120 16.051h88c20.336 0 49.441 15.16 56.648 35.152l67.223 156.848h-8.559l-69.656-69.656a7.99 7.99 0 00-2.879-1.81l10.88-10.878a8 8 0 00-11.313-11.312l-32 32a7.992 7.992 0 00-2.18 7.777c.73 2.797 2.914 4.984 5.711 5.715s5.773-.102 7.781-2.18l10.88-10.883a8.06 8.06 0 001.808 2.883l58.344 58.344H256a8.001 8.001 0 00-5.656 2.344l-45.656 45.656H176v-56c-.64-12.98-11.02-23.36-24-24h-24a9.684 9.684 0 01-8-8v-40c-.64-12.98-11.02-23.36-24-24h-8v-56a29.709 29.709 0 018.602-23.403A29.684 29.684 0 01120 16.051zm-32 144v-40h8a9.68 9.68 0 018 8v40c.64 12.976 11.02 23.355 24 24h24a9.68 9.68 0 018 8v8H88zm-48 8h32v40H16v-8c0-9.602 2.336-32 24-32zm56 184c-17.672 0-32-14.328-32-32 0-17.676 14.328-32 32-32s32 14.324 32 32c0 17.672-14.328 32-32 32zm192 0c-26.508 0-48-21.492-48-48 0-26.512 21.492-48 48-48s48 21.488 48 48c-.027 26.496-21.5 47.972-48 48zm0-112c-18.398-.11-35.945 7.754-48.11 21.558s-17.757 32.2-15.34 50.442h-81.269c-3.883-23.086-23.87-39.992-47.281-39.992s-43.398 16.906-47.281 39.992H32c-8.742-.223-15.777-7.258-16-16v-72h144v40a8 8 0 008 8h40a8.001 8.001 0 005.656-2.344l45.656-45.656H336v37.804a63.802 63.802 0 00-48-21.804zm0 0M472 216.05h-64a8 8 0 00-8 8v64a8 8 0 008 8h64a8 8 0 008-8v-64a8 8 0 00-8-8zm-8 64h-48v-48h48zm0 0M472 24.05h-64a8 8 0 00-8 8v64a8 8 0 008 8h64a8 8 0 008-8v-64a8 8 0 00-8-8zm-8 64h-48v-48h48zm0 0M472 120.05h-64a8 8 0 00-8 8v64a8 8 0 008 8h64a8 8 0 008-8v-64a8 8 0 00-8-8zm-8 64h-48v-48h48zm0 0"/></symbol><symbol fill="currentColor" viewBox="0 0 25 25.001" id="gear" xmlns="http://www.w3.org/2000/svg"><path d="M24.38 10.175l-2.231-.268a9.962 9.962 0 00-.992-2.401l1.387-1.763a.723.723 0 00-.057-.934l-2.299-2.3a.726.726 0 00-.934-.057l-1.766 1.389a9.825 9.825 0 00-2.396-.99L14.825.62a.724.724 0 00-.7-.62h-3.252a.723.723 0 00-.699.62l-.268 2.231a9.904 9.904 0 00-2.398.991L5.743 2.455a.724.724 0 00-.933.056l-2.3 2.301a.725.725 0 00-.054.934L3.842 7.51a9.879 9.879 0 00-.991 2.4l-2.23.267a.724.724 0 00-.621.7v3.252c0 .344.279.657.621.699l2.231.268a9.94 9.94 0 00.991 2.396l-1.386 1.766a.726.726 0 00.057.934l2.296 2.301a.726.726 0 00.933.057l1.766-1.39c.744.43 1.548.765 2.398.991l.268 2.23c.041.342.355.62.699.62h3.252a.721.721 0 00.699-.62l.268-2.23a9.928 9.928 0 002.398-.991l1.766 1.387c.271.212.69.187.933-.056l2.299-2.301a.724.724 0 00.056-.935l-1.388-1.764a9.893 9.893 0 00.992-2.397l2.23-.268a.722.722 0 00.621-.699v-3.252a.72.72 0 00-.62-.7zM12.501 18.75a6.25 6.25 0 110-12.5 6.25 6.25 0 010 12.5z"/></symbol><symbol viewBox="0 0 64 64" id="gift" xmlns="http://www.w3.org/2000/svg"><g data-name="gift box-celebration-surprise"><path fill="#ffda44" d="M7 27h50v31H7z"/><path fill="#ea348b" d="M46 13h6l-5 5H36v-4l10-8v7zM18 13V6l10 8v4H17l-5-5h6z"/><path fill="#e13957" d="M7 37h21v6H7zM36 37h21v6H36z"/><path fill="#dc1c3f" d="M28 12h8v6h-8z"/><path fill="#ff9811" d="M3 18h58v9H3z"/><path fill="#dfbf3c" d="M7 27h50v2H7z"/><path fill="#d80027" d="M28 27h8v31h-8z"/><path fill="#ffaf46" d="M3 18h58v2H3z"/><path fill="#bd0022" d="M28 18h8v9h-8z"/><rect width="9" height="3" x="9" y="51" fill="#ffeb99" rx="1.5"/><rect width="4" height="3" x="19" y="51" fill="#ffeb99" rx="1.5"/><path fill="#a2001d" d="M28 27h8v2h-8z"/><path fill="#f178b2" d="M22 18l-1-3 5 3h-4zM42 18l1-3-5 3h4z"/></g></symbol><symbol viewBox="0 0 512 511" id="guarantee" xmlns="http://www.w3.org/2000/svg"><path fill="#FFE477" d="M504.965 248.871l-23.797 28.45 18.242 33.105c3.895 7.054 4.695 15.5 2.215 23.164-2.492 7.668-8.105 14.02-15.402 17.453l-34.082 15.992 3.191 37.504c1.262 14.852-8.988 28.32-23.836 31.352l-.672.14-1.89.2-39.817.8-12.351 35.567c-2.63 7.605-8.375 13.859-15.739 17.129-7.367 3.285-15.843 3.363-23.265.242l-34.696-14.63-25.738 27.47c-5.633 6.011-13.308 9.113-21.094 9.183-.082.012-.171.012-.25.012-6.234 0-12.52-1.953-17.894-5.926l-.578-.418-1.422-1.281-27.207-29.04-34.696 14.63c-7.433 3.12-15.91 3.043-23.277-.242a29.324 29.324 0 01-15.738-17.141l-12.34-35.555-37.637-.75c-8.066-.16-15.78-3.691-21.164-9.676a29.403 29.403 0 01-7.414-22.066l3.192-37.504-34.082-15.992c-13.493-6.336-20.036-21.957-15.23-36.324l.218-.653.77-1.75L30.77 277.32 6.98 248.871c-9.656-11.277-9.253-28.117.954-39.266l.488-.539 1.762-1.53 30.39-23.65-10.945-36.132c-4.383-14.473 2.66-29.441 16.75-35.606l.672-.289 1.8-.593 38.786-9.055 4.683-37.356c1-7.996 5.313-15.3 11.84-20.035a29.394 29.394 0 0122.703-5.07l36.977 7.094 19.465-32.223a29.412 29.412 0 0118.972-13.488c7.875-1.672 16.192.008 22.797 4.613l30.899 21.512.261-.18 31.82-22.176a18.066 18.066 0 012.735-1.558c13.816-6.395 30.09-1.551 37.844 11.277l19.472 32.223 36.97-7.094c7.913-1.523 16.198.328 22.722 5.07 6.508 4.723 10.828 12.032 11.828 20.035l4.684 37.344 36.656 8.567a29.37 29.37 0 0118.691 13.859c4.035 6.988 4.996 15.414 2.664 23.129l-10.957 36.144 29.14 22.676a29.39 29.39 0 0111.337 20.203 29.368 29.368 0 01-6.875 22.094zm0 0"/><path fill="#FFCD00" d="M504.965 248.871l-23.797 28.45 18.242 33.105c3.895 7.054 4.695 15.5 2.215 23.164-2.492 7.668-8.105 14.02-15.402 17.453l-34.082 15.992 3.191 37.504c1.262 14.852-8.988 28.32-23.836 31.352l-.672.14-1.89.2-39.817.8-12.351 35.567c-2.63 7.605-8.375 13.859-15.739 17.129-7.367 3.285-15.843 3.363-23.265.242l-34.696-14.63-25.738 27.47c-5.633 6.011-13.308 9.113-21.094 9.183V27.078l31.82-22.176a18.066 18.066 0 012.735-1.558c13.816-6.395 30.09-1.551 37.844 11.277l19.472 32.223 36.97-7.094c7.913-1.523 16.198.328 22.722 5.07 6.508 4.723 10.828 12.032 11.828 20.035l4.684 37.344 36.656 8.567a29.37 29.37 0 0118.691 13.859c4.035 6.988 4.996 15.414 2.664 23.129l-10.957 36.144 29.14 22.676a29.39 29.39 0 0111.337 20.203 29.368 29.368 0 01-6.875 22.094zm0 0"/><path fill="#FFF" d="M383.281 256.25c0 70.148-56.957 127.25-127.047 127.5h-.449c-70.3 0-127.5-57.203-127.5-127.5s57.2-127.496 127.5-127.496h.45c70.09.25 127.046 57.348 127.046 127.496zm0 0"/><path fill="#E1EBF0" d="M383.281 256.25c0 70.148-56.957 127.25-127.047 127.5V128.754c70.09.25 127.047 57.348 127.047 127.496zm0 0"/><path fill="#B4D2D7" d="M313.652 237.887l-57.418 57.43-12.41 12.41a14.964 14.964 0 01-10.617 4.39c-3.84 0-7.684-1.46-10.617-4.39l-26.676-26.688c-5.867-5.867-5.867-15.363 0-21.226 5.852-5.864 15.36-5.864 21.223 0l16.07 16.07 59.223-59.219c5.863-5.863 15.37-5.863 21.222 0 5.868 5.863 5.868 15.371 0 21.223zm0 0"/><path fill="#6FA5AA" d="M313.652 237.887l-57.418 57.43v-42.458l36.196-36.195c5.863-5.863 15.37-5.863 21.222 0 5.868 5.863 5.868 15.371 0 21.223zm0 0"/></symbol><symbol fill="currentColor" viewBox="0 0 512 512" id="information-button" xmlns="http://www.w3.org/2000/svg"><path d="M256 0C114.613 0 0 114.617 0 256c0 141.391 114.613 256 256 256s256-114.609 256-256C512 114.617 397.387 0 256 0zm0 128c17.674 0 32 14.328 32 32 0 17.68-14.326 32-32 32s-32-14.32-32-32c0-17.672 14.326-32 32-32zm48 256h-96c-8.836 0-16-7.156-16-16 0-8.836 7.164-16 16-16h16v-96h-16c-8.836 0-16-7.156-16-16 0-8.836 7.164-16 16-16h64c8.836 0 16 7.164 16 16v112h16c8.836 0 16 7.164 16 16 0 8.844-7.164 16-16 16z"/></symbol><symbol fill="currentColor" viewBox="-67 0 512 512.001" id="medal" xmlns="http://www.w3.org/2000/svg"><path d="M188.969 107.973c-50.024 0-90.723 40.695-90.723 90.718 0 50.028 40.7 90.723 90.723 90.723s90.719-40.695 90.719-90.723c0-50.023-40.696-90.718-90.72-90.718zm0 0"/><path d="M377.934 260.09l-27.512-61.399 27.512-61.398-58.344-33.504-13.832-65.844-66.899 7.192L188.97 0l-49.895 45.137-66.894-7.188-13.832 65.844L0 137.293l27.512 61.398L0 260.09l58.348 33.504 7.492 35.672-62.281 132.34 65 .851L110.645 512l61.218-130.09 17.106 15.473 17.101-15.473L267.293 512l42.082-49.543 65-.852-62.281-132.34 7.496-35.671zm-188.965 59.32c-66.567 0-120.719-54.152-120.719-120.719S122.402 77.973 188.969 77.973c66.562 0 120.719 54.156 120.719 120.718 0 66.567-54.157 120.72-120.72 120.72zm0 0"/></symbol><symbol fill="currentColor" viewBox="0 -61 512 512" id="megaphone" xmlns="http://www.w3.org/2000/svg"><path d="M220.96 279.902l170.95 90.075V0L220.96 90.074zm0 0M451.953 169.988H512v30h-60.047zm0 0M486.781 73.172l11.48 27.715-55.48 22.984-11.48-27.719zm0 0M486.77 296.805l-55.48-22.98 11.48-27.72 55.48 22.98zm0 0M190.96 99.934H60.048v30.023H55.03C24.688 129.957 0 154.645 0 184.988s24.688 55.032 55.031 55.032h5.016v30.027h33.59l33.027 120.23h97.324L190.961 274.97zm0 0"/></symbol><symbol fill="currentColor" viewBox="0 0 15 15" id="multi-layout" xmlns="http://www.w3.org/2000/svg"><path d="M0 0h3v3H0V0zm6 0h3v3H6V0zm6 0h3v3h-3V0zM0 6h3v3H0V6zm6 0h3v3H6V6zm6 0h3v3h-3V6zM0 12h3v3H0v-3zm6 0h3v3H6v-3zm6 0h3v3h-3v-3z"/></symbol><symbol fill="currentColor" viewBox="0 0 296.999 296.999" id="open-book" xmlns="http://www.w3.org/2000/svg"><path d="M45.432 35.049h-.025a10.474 10.474 0 00-7.446 3.085 10.583 10.583 0 00-3.128 7.543v159.365c0 5.844 4.773 10.61 10.641 10.625 24.738.059 66.184 5.215 94.776 35.136V84.023c0-1.981-.506-3.842-1.461-5.382-23.467-37.792-68.563-43.534-93.357-43.592zM262.167 205.042V45.676c0-2.852-1.111-5.531-3.128-7.543a10.477 10.477 0 00-7.445-3.085h-.026c-24.793.059-69.889 5.801-93.357 43.593-.955 1.54-1.46 3.401-1.46 5.382v166.779c28.592-29.921 70.038-35.077 94.776-35.136 5.867-.015 10.64-4.781 10.64-10.624z"/><path d="M286.373 71.801h-7.706v133.241c0 14.921-12.157 27.088-27.101 27.125-20.983.05-55.581 4.153-80.084 27.344 42.378-10.376 87.052-3.631 112.512 2.171a10.606 10.606 0 009.011-2.054 10.567 10.567 0 003.994-8.301v-168.9c.001-5.859-4.767-10.626-10.626-10.626zM18.332 205.042V71.801h-7.706C4.768 71.801 0 76.568 0 82.427v168.897c0 3.25 1.456 6.276 3.994 8.301a10.598 10.598 0 009.011 2.054c25.46-5.803 70.135-12.547 112.511-2.171-24.502-23.19-59.1-27.292-80.083-27.342-14.943-.036-27.101-12.203-27.101-27.124z"/></symbol><symbol fill="currentColor" viewBox="0 0 550.801 550.801" id="pdf" xmlns="http://www.w3.org/2000/svg"><path d="M160.381 282.225c0-14.832-10.299-23.684-28.474-23.684-7.414 0-12.437.715-15.071 1.432V307.6c3.114.707 6.942.949 12.192.949 19.391 0 31.353-9.809 31.353-26.324zM272.875 259.019c-8.145 0-13.397.717-16.519 1.435v105.523c3.116.729 8.142.729 12.69.729 33.017.231 54.554-17.946 54.554-56.474.242-33.513-19.385-51.213-50.725-51.213z"/><path d="M488.426 197.019H475.2v-63.816c0-.398-.063-.799-.116-1.202-.021-2.534-.827-5.023-2.562-6.995L366.325 3.694c-.032-.031-.063-.042-.085-.076-.633-.707-1.371-1.295-2.151-1.804a9.495 9.495 0 00-.706-.419 11.131 11.131 0 00-2.131-.896c-.2-.056-.38-.138-.58-.19A10.774 10.774 0 00358.193 0H97.2C85.282 0 75.6 9.693 75.6 21.601v175.413H62.377c-17.049 0-30.873 13.818-30.873 30.873v160.545c0 17.043 13.824 30.87 30.873 30.87h13.224V529.2c0 11.907 9.682 21.601 21.6 21.601h356.4c11.907 0 21.6-9.693 21.6-21.601V419.302h13.226c17.044 0 30.871-13.827 30.871-30.87v-160.54c-.001-17.054-13.828-30.873-30.872-30.873zM97.2 21.605h250.193v110.513c0 5.967 4.841 10.8 10.8 10.8H453.6v54.108H97.2V21.605zm265.159 287.418c0 30.876-11.243 52.165-26.82 65.333-16.971 14.117-42.82 20.814-74.396 20.814-18.9 0-32.297-1.197-41.401-2.389V234.365c13.399-2.149 30.878-3.346 49.304-3.346 30.612 0 50.478 5.508 66.039 17.226 16.743 12.445 27.274 32.302 27.274 60.778zM80.7 393.499V234.365c11.241-1.904 27.042-3.346 49.296-3.346 22.491 0 38.527 4.308 49.291 12.928 10.292 8.131 17.215 21.534 17.215 37.328 0 15.799-5.25 29.198-14.829 38.285-12.442 11.728-30.865 16.996-52.407 16.996-4.778 0-9.1-.243-12.435-.723v57.67H80.7v-.004zm372.901 129.854H97.2V419.302h356.4v104.051zm31.297-261.226h-61.989v36.851h57.913v29.674h-57.913V393.5h-36.593V232.216h98.582v29.911z"/></symbol><symbol fill="currentColor" viewBox="0 0 348.077 348.077" id="phone" xmlns="http://www.w3.org/2000/svg"><path d="M340.273 275.083l-53.755-53.761c-10.707-10.664-28.438-10.34-39.518.744l-27.082 27.076a792.327 792.327 0 01-5.344-2.973c-17.102-9.476-40.509-22.464-65.14-47.113-24.704-24.701-37.704-48.144-47.209-65.257-1.003-1.813-1.964-3.561-2.913-5.221l18.176-18.149 8.936-8.947c11.097-11.1 11.403-28.826.721-39.521L73.39 8.194c-10.682-10.68-28.421-10.356-39.518.744l-15.15 15.237.414.411c-5.08 6.482-9.325 13.958-12.484 22.02C3.74 54.28 1.927 61.603 1.098 68.941-6 127.785 20.89 181.564 93.866 254.541c100.875 100.868 182.167 93.248 185.674 92.876 7.638-.913 14.958-2.738 22.397-5.627 7.992-3.122 15.463-7.361 21.941-12.43l.331.294 15.348-15.029c11.074-11.098 11.393-28.83.716-39.542z"/></symbol><symbol fill="currentColor" viewBox="0 0 60 60" id="photo-camera" xmlns="http://www.w3.org/2000/svg"><path d="M30 20.5c-6.617 0-12 5.383-12 12s5.383 12 12 12 12-5.383 12-12-5.383-12-12-12z"/><path d="M55.201 15.5h-8.524l-4-10H17.323l-4 10H12v-5H6v5H4.799A4.803 4.803 0 000 20.299v29.368A4.838 4.838 0 004.833 54.5h50.334A4.838 4.838 0 0060 49.667V20.299a4.803 4.803 0 00-4.799-4.799zM10 15.5H8v-3h2v3zm20 35c-9.925 0-18-8.075-18-18s8.075-18 18-18 18 8.075 18 18-8.075 18-18 18zm22-23c-2.206 0-4-1.794-4-4s1.794-4 4-4 4 1.794 4 4-1.794 4-4 4z"/></symbol><symbol fill="currentColor" viewBox="0 0 97.713 97.713" id="pin" xmlns="http://www.w3.org/2000/svg"><path d="M48.855 0C29.021 0 12.883 16.138 12.883 35.974c0 5.174 1.059 10.114 3.146 14.684 8.994 19.681 26.238 40.46 31.31 46.359a2.003 2.003 0 003.034 0c5.07-5.898 22.314-26.676 31.311-46.359 2.088-4.57 3.146-9.51 3.146-14.684C84.828 16.138 68.69 0 48.855 0zm0 54.659c-10.303 0-18.686-8.383-18.686-18.686 0-10.304 8.383-18.687 18.686-18.687s18.686 8.383 18.686 18.687c.001 10.303-8.382 18.686-18.686 18.686z"/></symbol><symbol fill="currentColor" viewBox="0 0 512 512" id="play-button" xmlns="http://www.w3.org/2000/svg"><path d="M256 0C114.617 0 0 114.615 0 256s114.617 256 256 256 256-114.615 256-256S397.383 0 256 0zm88.48 269.57l-128 80a16.008 16.008 0 01-16.238.422A15.994 15.994 0 01192 336V176c0-5.82 3.156-11.172 8.242-13.992a15.957 15.957 0 0116.238.422l128 80c4.676 2.93 7.52 8.055 7.52 13.57s-2.844 10.641-7.52 13.57z"/></symbol><symbol fill="currentColor" viewBox="0 0 232 232" id="print" xmlns="http://www.w3.org/2000/svg"><path d="M50 .5h132v33H50zM232 49.5H0v132h33v-49h165v49h34v-132zm-17 33h-16v-16h16v16z"/><path d="M50 148.5h132v83H50z"/></symbol><symbol fill="currentColor" viewBox="0 0 511.999 511.999" id="rating" xmlns="http://www.w3.org/2000/svg"><path d="M150.447 312.003c7.476-3.772 16.448-.955 20.427 6.413l28.239 52.29a10 10 0 0018.799-4.752v-76.351c-.001-5.522-4.478-9.999-10.001-9.999s-10 4.478-10 10v36.79l-9.44-17.48c-9.162-16.963-29.823-23.452-47.033-14.766-14.729 7.431-22.314 23.821-18.445 39.858l18.307 75.881c4.279 17.738 11.908 34.202 22.674 48.935l35.864 49.077A9.985 9.985 0 00207.92 512a9.957 9.957 0 005.892-1.927c4.459-3.259 5.433-9.516 2.174-13.975l-35.864-49.077a117.042 117.042 0 01-19.379-41.824l-18.307-75.882a15.296 15.296 0 018.011-17.312zM376.225 269.38a33.835 33.835 0 00-16.3 4.164c-4.907-12.782-17.302-21.883-31.791-21.883-6.249 0-12.105 1.7-17.144 4.65-5.386-11.718-17.227-19.88-30.946-19.88-5.007 0-9.76 1.095-14.045 3.044v-47.811c0-18.772-15.272-34.045-34.045-34.045-18.773 0-34.045 15.272-34.045 34.045v17.334c0 5.522 4.477 10 10 10s10-4.478 10-10v-17.333c0-7.744 6.301-14.045 14.045-14.045s14.045 6.301 14.045 14.045v141.107c0 5.522 4.477 10 10 10s10-4.478 10-10v-62.297c0-7.744 6.3-14.045 14.045-14.045s14.045 6.301 14.045 14.045v62.297c0 5.522 4.477 10 10 10s10-4.478 10-10v-47.066c0-7.745 6.3-14.046 14.045-14.046s14.045 6.301 14.045 14.046v47.066c0 5.522 4.477 10 10 10s10-4.478 10-10v-29.349c0-7.744 6.301-14.045 14.045-14.045s14.045 6.301 14.045 14.045v84.379c0 22.484-3.412 44.764-10.14 66.218l-14.106 44.982c-1.652 5.27 1.28 10.882 6.55 12.534a9.97 9.97 0 002.995.461c4.254-.001 8.199-2.737 9.539-7.011l14.106-44.982a241.038 241.038 0 0011.056-72.202v-84.379c.001-18.77-15.271-34.043-34.044-34.043zM511.161 53.029c-1.996-6.139-7.205-10.528-13.594-11.455l-30.629-4.441-13.705-27.752C450.376 3.594 444.592 0 438.139 0h-.004c-6.456.001-12.24 3.599-15.095 9.389l-13.69 27.758-30.627 4.459c-6.388.93-11.595 5.322-13.587 11.463-1.993 6.14-.358 12.752 4.265 17.256l22.169 21.598-5.224 30.506c-1.089 6.363 1.479 12.672 6.702 16.464a16.768 16.768 0 009.875 3.23c2.677 0 5.368-.646 7.854-1.953l27.391-14.41 27.399 14.396c5.714 3.004 12.508 2.51 17.729-1.287 5.221-3.796 7.786-10.105 6.692-16.468l-5.24-30.503 22.157-21.609c4.621-4.508 6.252-11.122 4.256-17.26zm-41.567 25.712a16.827 16.827 0 00-4.838 14.903l4.436 25.823-23.194-12.186a16.83 16.83 0 00-15.67.003l-23.188 12.199 4.423-25.827a16.835 16.835 0 00-4.847-14.899l-18.768-18.284 25.93-3.774a16.833 16.833 0 0012.672-9.214l11.59-23.498 11.602 23.491a16.835 16.835 0 0012.679 9.208l25.93 3.761-18.757 18.294zM329.01 53.029c-1.996-6.139-7.204-10.529-13.593-11.455l-30.629-4.441-13.705-27.752C268.225 3.594 262.442 0 255.988 0h-.005c-6.455.001-12.239 3.599-15.094 9.389l-13.69 27.758-30.627 4.459c-6.388.93-11.595 5.322-13.587 11.463-1.993 6.14-.358 12.752 4.265 17.256l22.168 21.597-5.224 30.506c-1.089 6.363 1.479 12.672 6.702 16.464a16.768 16.768 0 009.875 3.23c2.677 0 5.368-.646 7.854-1.953l27.392-14.409 27.399 14.395c5.714 3.004 12.508 2.51 17.729-1.287 5.221-3.796 7.786-10.105 6.692-16.468l-5.24-30.503 22.157-21.609c4.621-4.507 6.252-11.12 4.256-17.259zm-41.566 25.712a16.83 16.83 0 00-4.838 14.903l4.436 25.823-23.194-12.186a16.83 16.83 0 00-15.67.003l-23.189 12.199 4.423-25.827a16.833 16.833 0 00-4.847-14.899l-18.767-18.284 25.929-3.774a16.836 16.836 0 0012.673-9.214l11.59-23.499 11.602 23.492a16.834 16.834 0 0012.679 9.208l25.93 3.761-18.757 18.294zM146.86 53.029c-1.996-6.139-7.205-10.528-13.594-11.455l-30.629-4.441L88.933 9.381C86.075 3.594 80.292 0 73.838 0h-.005c-6.455.001-12.239 3.599-15.094 9.389l-13.69 27.758-30.627 4.459c-6.388.93-11.594 5.322-13.587 11.462S.475 65.82 5.099 70.325l22.169 21.598-5.224 30.506c-1.089 6.363 1.479 12.672 6.702 16.465 2.951 2.142 6.401 3.23 9.876 3.229 2.677 0 5.368-.646 7.854-1.953l27.392-14.409 27.399 14.395c5.715 3.002 12.508 2.509 17.729-1.286 5.221-3.797 7.785-10.108 6.692-16.47l-5.24-30.503 22.157-21.609c4.62-4.507 6.251-11.12 4.255-17.259zM105.294 78.74a16.827 16.827 0 00-4.839 14.904l4.436 25.823-23.193-12.186a16.83 16.83 0 00-15.67.003l-23.19 12.2 4.422-25.825a16.83 16.83 0 00-4.846-14.901L23.648 60.473l25.929-3.774a16.833 16.833 0 0012.672-9.214l11.59-23.499 11.602 23.492a16.834 16.834 0 0012.679 9.208l25.931 3.761-18.757 18.293z"/><path d="M214.981 243.13a10.07 10.07 0 00-7.07-2.93c-2.63 0-5.21 1.069-7.07 2.93s-2.93 4.439-2.93 7.07c0 2.63 1.07 5.21 2.93 7.069a10.077 10.077 0 007.07 2.931c2.63 0 5.21-1.07 7.07-2.931a10.072 10.072 0 002.93-7.069 10.07 10.07 0 00-2.93-7.07z"/></symbol><symbol fill="currentColor" viewBox="0 0 512 512" id="search" xmlns="http://www.w3.org/2000/svg"><path d="M495 466.2L377.2 348.4c29.2-35.6 46.8-81.2 46.8-130.9C424 103.5 331.5 11 217.5 11 103.4 11 11 103.5 11 217.5S103.4 424 217.5 424c49.7 0 95.2-17.5 130.8-46.7L466.1 495c8 8 20.9 8 28.9 0 8-7.9 8-20.9 0-28.8zm-277.5-83.3C126.2 382.9 52 308.7 52 217.5S126.2 52 217.5 52C308.7 52 383 126.3 383 217.5s-74.3 165.4-165.5 165.4z"/></symbol><symbol viewBox="0 0 512 512" id="search-2" xmlns="http://www.w3.org/2000/svg"><path fill="#384463" d="M290.511 267.647l-22.794 22.936 73.988 74.445 22.797-22.935z"/><path fill="#46D8BA" d="M501.016 456.65c12.586 12.663 12.586 33.192 0 45.855-12.586 12.66-32.988 12.66-45.571 0L347.211 393.604c-12.586-12.662-12.586-33.191 0-45.853 12.584-12.662 32.985-12.662 45.571 0L501.016 456.65z"/><path fill="#FFF" d="M501.016 456.65L392.782 347.751c-12.586-12.662-32.987-12.662-45.571 0a32.352 32.352 0 00-5.992 8.337c12.053-6.019 27.067-3.986 37.109 6.117l108.234 108.899c10.091 10.152 12.083 25.359 5.992 37.515a32.228 32.228 0 008.463-6.115c12.585-12.663 12.585-33.191-.001-45.854z" opacity=".2"/><path fill="#48587C" d="M279.188 40.389c70.994 60.67 79.718 167.704 19.483 239.067-60.233 71.365-166.614 80.036-237.607 19.364-70.995-60.668-79.717-167.703-19.483-239.067 60.233-71.366 166.614-80.036 237.607-19.364z"/><path fill="#FFF" d="M279.188 40.389C208.195-20.283 101.814-11.613 41.581 59.753a165.772 165.772 0 00-5.147 6.426C97.8 3.813 197.583-1.337 265.234 56.477c68.869 58.853 79.135 161.335 24.702 232.565a169.542 169.542 0 008.735-9.587c60.235-71.362 51.512-178.397-19.483-239.066z" opacity=".2"/><path d="M50.928 289.534c65.831 66.238 172.565 66.238 238.395 0a165.365 165.365 0 005.652-5.986c-66.228 57.174-166.101 54.202-228.832-8.916C2.283 210.38.375 107.402 60.414 40.83a171.712 171.712 0 00-9.486 8.844c-65.831 66.236-65.831 173.625 0 239.86z" opacity=".1"/><path fill="#CAD0D1" d="M49.521 169.235c-.203-66.501 53.735-120.44 120.236-120.236 66.5.202 120.771 54.475 120.974 120.974.203 66.501-53.735 120.44-120.235 120.236-66.501-.203-120.772-54.474-120.975-120.974z"/><path d="M192.896 267.617c-66.5-.205-120.771-54.477-120.975-120.975-.084-27.324 8.979-52.523 24.292-72.721-28.49 21.989-46.811 56.508-46.692 95.314.203 66.499 54.475 120.77 120.975 120.974 39.177.119 73.989-18.556 95.943-47.517-20.334 15.696-45.847 25.008-73.543 24.925z" opacity=".1"/><path fill="#48587C" d="M385.58 324.428c8.479 8.531 8.479 22.36 0 30.892l-32.747 32.951c-8.48 8.527-22.225 8.527-30.702-.001-8.479-8.531-8.479-22.361 0-30.891l32.749-32.949c8.477-8.534 22.224-8.534 30.7-.002z"/><path fill="#FFF" d="M255.669 157.373a8.084 8.084 0 01-7.867-6.257 80.475 80.475 0 00-21.325-38.558c-15.03-15.122-35.042-23.447-56.35-23.447a8.085 8.085 0 010-16.168c25.646 0 49.731 10.023 67.818 28.22a96.635 96.635 0 0125.608 46.299 8.086 8.086 0 01-7.884 9.911z"/></symbol><symbol fill="currentColor" viewBox="0 0 18 18" id="star-filled" xmlns="http://www.w3.org/2000/svg"><path d="M9 14.2l5.6 3.4-1.5-6.3L18 7l-6.5-.5L9 .4l-2.5 6L0 7l4.9 4.3-1.5 6.3L9 14.2z"/></symbol><symbol fill="currentColor" viewBox="0 0 18 18" id="star-stroke" xmlns="http://www.w3.org/2000/svg"><path d="M18 6.9l-6.5-.6L9 .4l-2.5 6-6.5.5 4.9 4.3-1.4 6.4L9 14.2l5.5 3.4-1.4-6.4L18 6.9zm-9 5.6l-3.4 2 .8-4-3-2.5 4-.4L9 4.1l1.6 3.6 4 .4-3 2.6 1 3.8-3.6-2z"/></symbol><symbol fill="currentColor" viewBox="0 0 376.846 376.846" id="tool-button" xmlns="http://www.w3.org/2000/svg"><path d="M364.966 372.743c2.382-2.39 4.316-4.324 4.316-4.324l4.316-4.324c2.382-2.398-1.691-13.453-9.104-24.695l-19.013-28.865c-7.413-11.242-19.127-21.565-26.174-23.044-7.047-1.488-12.762-2.691-12.762-2.691l-57.298-57.274-20.858 20.874 57.25 57.282 2.707 12.762c1.488 7.039 11.819 18.769 23.061 26.174l28.881 19.037c11.241 7.405 22.296 11.478 24.678 9.088zM13.608 74.197l85.139 85.139 10.632 10.608c.244.26.48.398.715.642l14.062-14.071L23.728 56.086c-2.447-2.422-2.447-6.397 0-8.795 2.422-2.455 6.34-2.455 8.795 0l100.396 100.453 15.664-15.696L48.154 31.635a6.172 6.172 0 010-8.795c2.422-2.422 6.365-2.422 8.763 0l100.477 100.477 14.038-14.087c-.211-.244-.366-.504-.585-.74l-11.161-11.177-84.594-84.57c-16.972-17.005-44.52-16.981-61.485 0-16.996 16.966-16.996 44.481.001 61.454z"/><path d="M375.728 81.651c-1.024-13.428-12.892-16.038-22.41-6.519l-33.262 33.27c-7.722 7.779-20.378 7.755-28.125 0l-21.549-21.524c-7.803-7.844-7.779-20.46-.024-28.247l34.392-34.359c9.527-9.519 7.112-21.817-6.259-23.41-25.865-3.089-52.82 5.275-72.678 25.117-15.127 15.152-23.573 34.473-25.361 54.258a89.768 89.768 0 001.097 24.004L16.965 288.84c-9.746 9.754-15.127 22.703-15.127 36.497 0 13.762 5.381 26.694 15.103 36.432 20.11 20.102 52.819 20.102 72.962 0 0 0 132.683-132.666 186.413-186.461a87.007 87.007 0 0025.41-.26c17.769-2.78 34.847-10.925 48.56-24.613 18.866-18.867 27.328-44.139 25.442-68.784zM70.857 345.91c-10.551 10.494-27.523 10.494-38.042-.024-10.47-10.445-10.494-27.499.024-37.969 10.494-10.47 27.466-10.445 37.985 0 10.471 10.47 10.471 27.524.033 37.993z"/></symbol><symbol viewBox="0 0 511.999 511.999" id="tools" xmlns="http://www.w3.org/2000/svg"><g fill="#CDD4D5"><path d="M370.885 327.27L186.862 143.248a7.998 7.998 0 00-11.312 0l-30.169 30.167a7.996 7.996 0 000 11.312l184.023 184.024a7.996 7.996 0 0011.312 0l30.167-30.169a7.996 7.996 0 00.002-11.312z"/><path d="M214.012 73.862L144.626 4.476a8 8 0 00-11.313 0l-30.166 30.167a7.998 7.998 0 000 11.312l51.662 51.662-55.056 55.056-51.663-51.66a7.998 7.998 0 00-11.312 0L6.61 131.18a7.998 7.998 0 000 11.312l69.386 69.386a7.998 7.998 0 006.381 2.31l66.37-6.034a8.007 8.007 0 004.932-2.31l54.302-54.302a7.996 7.996 0 002.31-4.932l6.034-66.37a8.001 8.001 0 00-2.313-6.378z"/></g><path fill="#FFF" d="M167.172 76.537a7.972 7.972 0 01-5.656-2.343l-21.332-21.332a7.998 7.998 0 010-11.312 7.998 7.998 0 0111.312 0l21.332 21.332a7.998 7.998 0 01-5.656 13.655z"/><path fill="#CDD4D5" d="M509.657 369.506l-69.386-69.386a7.999 7.999 0 00-6.38-2.31l-66.37 6.034a8.007 8.007 0 00-4.932 2.31l-54.302 54.302a7.996 7.996 0 00-2.31 4.932l-6.034 66.37a7.994 7.994 0 002.31 6.38l69.386 69.386a7.976 7.976 0 005.656 2.343 7.972 7.972 0 005.656-2.343l30.167-30.167a7.998 7.998 0 000-11.312l-51.662-51.662 55.056-55.056 51.662 51.662a7.998 7.998 0 0011.312 0l30.167-30.167a8 8 0 00.004-11.316z"/><path fill="#687F82" d="M160.98 157.816l-15.6 15.599a7.996 7.996 0 000 11.312l184.024 184.024a7.996 7.996 0 0011.312 0l15.599-15.6L160.98 157.816z"/><g fill="#9BAAAB"><path d="M127.796 124.631l-28.044 28.044-51.662-51.662a7.998 7.998 0 00-11.312 0L6.61 131.18a7.998 7.998 0 000 11.312l69.386 69.386a7.998 7.998 0 006.381 2.31l66.37-6.034a8.007 8.007 0 004.932-2.31l27.666-27.666-53.549-53.547zM308.287 360.455a7.996 7.996 0 00-2.31 4.932l-6.034 66.37a7.994 7.994 0 002.31 6.38l69.386 69.386a7.976 7.976 0 005.656 2.343 7.972 7.972 0 005.656-2.343l30.167-30.167a7.998 7.998 0 000-11.312l-51.662-51.663 28.044-28.044-53.547-53.547-27.666 27.665z"/></g><g fill="#CDD4D5"><path d="M363.602 145.459l-24.134-24.135a7.998 7.998 0 00-11.312 0l-159.89 159.889a8 8 0 000 11.313L192.4 316.66a7.976 7.976 0 005.656 2.343 7.97 7.97 0 005.656-2.343l159.889-159.889a7.997 7.997 0 00.001-11.312z"/><path d="M463.155 45.905L439.021 21.77a7.995 7.995 0 00-8.967-1.625l-66.37 30.169a7.988 7.988 0 00-2.346 1.625l-51.283 51.285a7.998 7.998 0 000 11.312l60.335 60.335a7.968 7.968 0 005.656 2.343 7.972 7.972 0 005.656-2.343l51.285-51.285a7.982 7.982 0 001.625-2.346l30.167-66.37a7.99 7.99 0 00-1.624-8.965z"/></g><path fill="#FD6A33" d="M200.696 362.666L122.26 284.23a7.998 7.998 0 00-11.312 0l-93.52 93.52a8 8 0 000 11.313l78.436 78.436a7.976 7.976 0 005.656 2.343 7.972 7.972 0 005.656-2.343l93.52-93.52a8 8 0 000-11.313z"/><path fill="#FF8C29" d="M122.26 284.23a7.998 7.998 0 00-11.312 0l-93.52 93.52a8 8 0 000 11.313l38.888 38.889 104.833-104.833-38.889-38.889z"/><g fill="#365558"><path d="M62.297 433.936l-11.313-11.313 104.831-104.831 11.313 11.313zM86.437 452.037l-11.313-11.313L176.938 338.91l11.313 11.313z"/></g><g fill="#687F82"><path d="M44.202 409.808L32.89 398.495l101.814-101.814 11.313 11.313zM161.147 323.114L56.316 427.944l-5.324-5.324 104.83-104.83zM351.206 133.062L180.004 304.263l12.396 12.396a7.976 7.976 0 005.656 2.343 7.97 7.97 0 005.656-2.343l159.89-159.889a7.998 7.998 0 000-11.312l-12.396-12.396z"/></g><path fill="#9BAAAB" d="M450.759 33.508L339.893 144.375l30.497 30.497a7.968 7.968 0 005.656 2.343 7.972 7.972 0 005.656-2.343l51.285-51.285a7.982 7.982 0 001.625-2.346l30.167-66.37a8 8 0 00-1.625-8.967l-12.395-12.396z"/><path fill="#FF8C29" d="M74.371 484.926c1.327 0 2.663-.33 3.882-1.007l27.15-15.084-89.314-89.313-15.082 27.151a8 8 0 001.336 9.541l66.37 66.369a7.99 7.99 0 005.658 2.343z"/><path fill="#FFD1A9" d="M16.091 379.522L1.007 406.673a8 8 0 001.336 9.541l32.855 32.855 25.22-25.22-44.327-44.327z"/><path fill="#FF8C29" d="M164.495 266.13a8.004 8.004 0 00-8.808-1.696l-42.235 18.101 88.94 88.94 18.101-42.235a8.001 8.001 0 00-1.696-8.808l-54.302-54.302z"/><path fill="#FFD1A9" d="M164.495 266.13a8.004 8.004 0 00-8.808-1.696l-42.235 18.101 44.141 44.141 33.723-33.723-26.821-26.823z"/><path fill="#FFF" d="M353.575 117.36a7.972 7.972 0 01-5.656-2.343 7.998 7.998 0 010-11.312l25.598-25.598a7.998 7.998 0 0111.312 0 7.998 7.998 0 010 11.312l-25.598 25.598a7.976 7.976 0 01-5.656 2.343z"/></symbol><symbol viewBox="0 0 110 110" id="transfer" xmlns="http://www.w3.org/2000/svg"><path fill="#f7be56" d="M86.55 55c0 17.397-14.153 31.55-31.55 31.55S23.45 72.398 23.45 55c0-17.062 13.615-31.012 30.561-31.521.32-.029.654-.029.989-.029.335 0 .67 0 .989.029C72.935 23.989 86.55 37.938 86.55 55z"/><g fill="#dc8744"><path d="M56.425 26.257c0 1.12-.174 2.124-.465 2.822-.32-.014-.64-.014-.96-.014-.32 0-.64 0-.96.014-.291-.698-.465-1.702-.465-2.822 0-1.09.16-2.08.436-2.778.32-.029.654-.029.989-.029.335 0 .67 0 .989.029.276.698.436 1.687.436 2.778zM44.611 28.162c.456 1.023.705 2.012.723 2.768-.298.117-.59.247-.883.377-.292.13-.585.26-.871.404-.55-.52-1.118-1.366-1.573-2.389-.444-.997-.7-1.965-.731-2.716.28-.156.586-.292.891-.428.306-.136.612-.272.916-.376.536.525 1.085 1.364 1.528 2.36zM34.594 34.708c.832.75 1.461 1.55 1.785 2.234-.225.228-.439.466-.653.704-.214.238-.428.475-.632.723-.713-.25-1.576-.793-2.408-1.542-.81-.73-1.439-1.51-1.773-2.184.193-.257.417-.505.64-.754.224-.249.448-.497.684-.716.704.262 1.546.805 2.357 1.535zM28.104 44.762c1.065.346 1.966.823 2.54 1.315a21.1 21.1 0 00-.31.909c-.1.304-.198.608-.283.917-.754.061-1.763-.083-2.828-.43-1.037-.336-1.928-.794-2.507-1.273.071-.313.175-.631.278-.95.103-.318.207-.636.333-.931.75-.047 1.74.106 2.777.443zM26.265 56.587c1.114-.117 2.13-.049 2.856.168.019.32.052.638.085.956.034.318.067.637.115.953-.664.363-1.644.641-2.758.758-1.084.114-2.085.059-2.808-.143-.062-.316-.097-.648-.132-.981-.035-.333-.07-.665-.075-.987.666-.348 1.633-.61 2.717-.724zM29.395 68.137c.97-.56 1.926-.91 2.677-1.008.147.285.307.562.467.839.16.277.32.554.493.824-.46.601-1.242 1.254-2.211 1.814-.945.546-1.882.902-2.625 1.011a11.188 11.188 0 01-.52-.842c-.167-.29-.334-.58-.469-.87.467-.59 1.243-1.222 2.188-1.768zM36.952 77.416c.658-.906 1.39-1.616 2.035-2.01.25.2.51.388.768.576s.518.377.786.553c-.175.736-.624 1.65-1.283 2.556-.64.883-1.352 1.59-1.986 1.992-.276-.165-.546-.362-.817-.558s-.541-.394-.783-.605c.187-.727.639-1.622 1.28-2.504zM47.63 82.819c.232-1.096.612-2.041 1.042-2.664.31.08.623.147.936.214.312.067.625.133.942.185.14.744.101 1.762-.132 2.857-.227 1.067-.589 2.002-1.004 2.627-.32-.038-.647-.108-.974-.177-.327-.07-.654-.14-.961-.234-.125-.74-.076-1.741.15-2.808zM59.581 83.411c-.232-1.095-.27-2.113-.13-2.857.315-.052.628-.118.941-.185.313-.066.626-.133.936-.214.43.623.81 1.568 1.042 2.664.227 1.067.276 2.067.15 2.808-.306.095-.633.164-.96.234-.328.07-.655.139-.974.177-.416-.625-.778-1.56-1.005-2.627zM70.741 79.092c-.658-.906-1.107-1.821-1.282-2.557.268-.176.527-.364.785-.552.26-.188.518-.377.769-.577.645.394 1.377 1.104 2.035 2.01.64.882 1.093 1.777 1.28 2.504-.242.212-.513.408-.783.605-.271.196-.542.393-.818.558-.634-.403-1.345-1.109-1.986-1.991zM79.18 70.606c-.97-.56-1.753-1.213-2.212-1.814.173-.27.333-.547.493-.824.16-.277.32-.554.467-.839.75.097 1.707.448 2.677 1.008.944.546 1.721 1.179 2.188 1.767-.135.292-.303.582-.47.871-.167.29-.334.58-.52.843-.743-.11-1.679-.466-2.624-1.012zM83.436 59.422c-1.113-.117-2.094-.395-2.757-.758.047-.316.08-.634.114-.953s.067-.636.086-.956c.725-.217 1.742-.285 2.855-.168 1.085.114 2.052.377 2.718.725-.005.32-.04.653-.075.986s-.07.666-.132.98c-.723.203-1.724.258-2.809.144zM82.777 47.474c-1.065.346-2.074.49-2.828.43-.085-.31-.184-.614-.283-.918a21.098 21.098 0 00-.31-.909c.574-.492 1.475-.968 2.54-1.314 1.037-.338 2.027-.491 2.777-.444.126.295.23.614.333.932.103.318.207.636.278.95-.579.478-1.47.936-2.507 1.273zM77.314 36.827c-.832.75-1.695 1.291-2.409 1.542-.203-.247-.417-.485-.631-.723s-.428-.476-.653-.704c.324-.683.953-1.485 1.785-2.234.811-.73 1.653-1.273 2.357-1.535.236.219.46.467.683.716.224.249.448.497.64.754-.333.673-.961 1.454-1.772 2.184zM67.993 29.322c-.455 1.023-1.023 1.87-1.573 2.389-.286-.144-.579-.274-.871-.404-.292-.13-.585-.26-.883-.377.018-.756.267-1.745.723-2.767.443-.997.992-1.836 1.528-2.361.304.104.61.24.916.376.305.136.61.272.891.428-.031.75-.287 1.72-.731 2.716z"/></g><path fill="#fcd462" d="M81.334 55c0 14.519-11.816 26.334-26.334 26.334-14.519 0-26.334-11.815-26.334-26.334 0-14.193 11.299-25.802 25.36-26.32.324-.014.65-.014.974-.014.325 0 .65 0 .975.015 14.06.517 25.36 12.126 25.36 26.32z"/><path fill="#dc8744" d="M53.417 72.252v-2.746c-2.7-.048-5.494-.886-7.124-2.05l1.118-3.12c1.676 1.118 4.099 2.002 6.707 2.002 3.307 0 5.54-1.91 5.54-4.563 0-2.561-1.816-4.144-5.263-5.542-4.747-1.861-7.681-4.003-7.681-8.055 0-3.865 2.745-6.798 7.029-7.497v-2.932h2.89v2.746c2.794.093 4.7.838 6.05 1.63l-1.164 3.073c-.978-.559-2.885-1.583-5.865-1.583-3.587 0-4.937 2.142-4.937 4.004 0 2.421 1.722 3.632 5.775 5.308 4.796 1.957 7.215 4.378 7.215 8.522 0 3.68-2.56 7.124-7.355 7.916v2.887h-2.935z"/><g fill="#3a556a"><path d="M74.068 17.51a1.06 1.06 0 01-.467-.108 42.123 42.123 0 00-2.854-1.269 1.067 1.067 0 11.794-1.98c1.004.401 2.013.85 2.998 1.332a1.068 1.068 0 01-.47 2.026zM85.52 25.722c-.275 0-.549-.105-.757-.315a41.747 41.747 0 00-5.249-4.466 1.067 1.067 0 111.244-1.735 43.829 43.829 0 015.518 4.696 1.067 1.067 0 01-.757 1.82zM91.827 33.812c-.363 0-.716-.184-.916-.517a40.884 40.884 0 00-1.706-2.61 1.067 1.067 0 011.74-1.236 43.354 43.354 0 011.796 2.746 1.068 1.068 0 01-.914 1.617zM36.529 94.847c-.155 0-.31-.034-.46-.105a44.226 44.226 0 01-2.906-1.525 1.067 1.067 0 111.063-1.85 41.667 41.667 0 002.764 1.45 1.067 1.067 0 01-.461 2.03zM28.056 89.501a1.06 1.06 0 01-.669-.237 44.546 44.546 0 01-5.08-4.81 1.067 1.067 0 111.584-1.43 42.554 42.554 0 004.837 4.58 1.068 1.068 0 01-.672 1.897zM18.94 79.387c-.351 0-.693-.172-.897-.487a44.157 44.157 0 01-1.682-2.817 1.067 1.067 0 111.871-1.025 42.285 42.285 0 001.601 2.681 1.068 1.068 0 01-.894 1.648zM55.55 11.13l-7.578-4.558a1.067 1.067 0 00-1.1 1.83l4.55 2.735C28.592 12.946 10.977 31.854 10.977 55c0 5.346.952 10.573 2.83 15.535a1.069 1.069 0 001.996-.755A41.603 41.603 0 0113.111 55c0-22.356 17.273-40.551 39.472-41.795l-4.18 4.825a1.067 1.067 0 001.614 1.398l5.79-6.685a1.065 1.065 0 00-.257-1.613zM99.023 55c0-5.704-1.054-11.242-3.135-16.459a1.067 1.067 0 00-1.982.79c1.98 4.965 2.983 10.237 2.983 15.67 0 22.291-17.504 40.566-39.489 41.814l4.196-4.844a1.067 1.067 0 00-1.613-1.398l-5.79 6.685a1.066 1.066 0 00.257 1.613l7.578 4.558a1.067 1.067 0 101.1-1.83l-4.558-2.74C81.179 97.032 99.023 78.07 99.023 55z"/></g></symbol><symbol viewBox="0 0 549.5 391.75" id="truck" xmlns="http://www.w3.org/2000/svg"><defs><linearGradient id="__89" x1="357.54" x2="357.54" y1="179.08" y2="346.42" gradientTransform="matrix(-1 0 0 1 549.5 0)" gradientUnits="userSpaceOnUse"><stop offset="0" stop-color="#fff" stop-opacity="0"/><stop offset=".09" stop-color="#fefcf8" stop-opacity=".04"/><stop offset=".24" stop-color="#fcf5e5" stop-opacity=".13"/><stop offset=".41" stop-color="#f8e8c5" stop-opacity=".29"/><stop offset=".62" stop-color="#f2d79a" stop-opacity=".51"/><stop offset=".84" stop-color="#ebc263" stop-opacity=".78"/><stop offset="1" stop-color="#e6b138"/></linearGradient><style>.cls-1{fill:#dbd9da}.cls-2{fill:#322e2f}.cls-3{fill:#423e41}.cls-7{fill:#785d43}</style></defs><g id="_2" data-name=" 2"><g id="_18" data-name=" 18"><path d="M332.27 38.71h34.54a4.62 4.62 0 014.62 4.62 4.63 4.63 0 01-4.62 4.67h-34.54a4.62 4.62 0 01-4.62-4.62 4.62 4.62 0 014.62-4.62z" class="cls-1" transform="rotate(180 349.54 43.335)"/><path d="M339.46 31.25h20.17v28.83h-20.17z" class="cls-1" transform="rotate(-180 349.54 45.665)"/></g><path id="_20" d="M196.13 207.08v7.75l-48-2.08-.3-12.97 48.3 7.3z" class="cls-2" data-name=" 20"/><path id="_15" d="M207.25 231.5v-18.13l-74.25-3.7-10 13.75 84.25 8.08z" class="cls-1" data-name=" 15"/><path id="_19" d="M263.7 202.28l7.72-4.56-23.31-37.14-7.73 4.55 23.32 37.15z" class="cls-3" data-name=" 19"/><rect id="_6" width="16.33" height="34" y="225.75" fill="#a82b0e" data-name=" 6" rx="8.17" transform="rotate(-180 8.165 242.75)"/><path id="_12" d="M293.04 213.98l-17.48-44.23-27.89 26.33 24.34 59.67 21.03-41.77z" class="cls-1" data-name=" 12"/><path id="_11" d="M124.75 220.33l92.25 8.25v22.5h51.75l26-51.25 27.75 64.25-183.36 3.78-19.85-16.13 5.46-31.4z" class="cls-2" data-name=" 11"/><path id="_10" d="M230.85 67.75a11.86 11.86 0 0111.05 7.46l74 183.79H147.26l-20.61-16.76L131 71.72v-.3a3.67 3.67 0 013.67-3.67h96.18m0-12h-96.18A15.66 15.66 0 00119 71.42l-4.5 176.41L143 271h187.33v-8.25L253 70.73a23.91 23.91 0 00-22.18-15z" class="cls-2" data-name=" 10"/><g id="_16" data-name=" 16"><path d="M335 55.75h31.33v207H335z" class="cls-2" transform="rotate(-180 350.665 159.25)"/><path d="M325.67 55.75h14.92v17.17h-14.92z" class="cls-2" transform="rotate(-180 333.125 64.335)"/></g><path id="_5" fill="#fbd225" d="M18.75 346.42h342.08a14.75 14.75 0 0014.75-14.75v-62.23a9.64 9.64 0 00-9.69-9.64l-211.67 1A32.07 32.07 0 01121 231.29l-4.19-52.21H42.17c-17 0-34 14-33.84 36.34V336a10.43 10.43 0 0010.42 10.42z" data-name=" 5"/><path id="_5__" fill="url(#__89)" d="M18.75 346.42h342.08a14.75 14.75 0 0014.75-14.75v-62.23a9.64 9.64 0 00-9.69-9.64l-211.67 1A32.07 32.07 0 01121 231.29l-4.19-52.21H42.17c-17 0-34 14-33.84 36.34V336a10.43 10.43 0 0010.42 10.42z" data-name=" 5 ()"/><g id="_9" data-name=" 9"><rect width="6.25" height="42.5" x="93.5" y="205.33" class="cls-3" rx="3.12" transform="rotate(180 96.625 226.585)"/><rect width="6.25" height="42.5" x="83.33" y="205.33" class="cls-3" rx="3.12" transform="rotate(180 86.46 226.585)"/><rect width="6.25" height="42.5" x="73.54" y="205.33" class="cls-3" rx="3.12" transform="rotate(-180 76.665 226.585)"/><rect width="6.25" height="42.5" x="63.38" y="205.33" class="cls-3" rx="3.12" transform="rotate(-180 66.5 226.585)"/><rect width="6.25" height="42.5" x="52.79" y="205.33" class="cls-3" rx="3.12" transform="rotate(180 55.915 226.585)"/><rect width="6.25" height="42.5" x="42.63" y="205.33" class="cls-3" rx="3.12" transform="rotate(180 45.75 226.585)"/><rect width="6.25" height="42.5" x="32.63" y="205.33" class="cls-3" rx="3.12" transform="rotate(180 35.75 226.585)"/></g><g id="_7" data-name=" 7"><circle cx="298.46" cy="331.38" r="60.37" class="cls-2"/><circle cx="298.46" cy="330.63" r="26.45" class="cls-1"/></g><g id="_7__" data-name=" 7 ()"><circle cx="65.52" cy="354.62" r="37.13" class="cls-2"/><circle cx="65.52" cy="354.17" r="16.26" class="cls-1"/></g><path id="_14" d="M225.42 178.67a4.41 4.41 0 005.94 1.39l36.7-21.64a4.12 4.12 0 001.46-5.75 4.41 4.41 0 00-5.94-1.39l-36.7 21.64a4.12 4.12 0 00-1.46 5.75z" class="cls-2" data-name=" 14"/><g id="_17" data-name=" 17"><path d="M549.5 357.08h-177l-2.25-255h4.5l11.25 241 163.5 8.5v5.5zM349.54 8a9.67 9.67 0 11-9.67 9.67A9.68 9.68 0 01349.54 8m0-8a17.67 17.67 0 1017.67 17.67A17.67 17.67 0 00349.54 0z" class="cls-2"/></g><g id="_13" data-name=" 13"><path d="M146.45 204.57l50.69 4.62c7.85.71 15.15-2.68 15.29-7.63.13-4.95-7-8.73-14.86-8.44l-45.86 1.68a5.32 5.32 0 00-5.26 5l-4.07-.66c-.07 2.62 1.17 5.16 4.07 5.43z" class="cls-7"/><path d="M155.62 198.1l-4.16-52c-.71-8.93-5.38-16.56-10.28-15.89-4.91.67-7.36 9.27-5.65 18.07l6.85 50.8c.63 3.24 3.25 5.43 5.87 5.07l3.08.38c2.61-.32 4.55-3.14 4.29-6.43z" class="cls-7"/></g><g id="_21" data-name=" 21"><path d="M343.51 60.08h7.16V259.9h-7.16z" class="cls-3" transform="rotate(-180 347.085 159.99)"/><path d="M354.94 59.57h3.58v199.82h-3.58z" class="cls-3" transform="rotate(-180 356.73 159.48)"/></g></g></symbol><symbol fill="currentColor" viewBox="0 0 481.291 481.291" id="user" xmlns="http://www.w3.org/2000/svg"><path d="M138.814 146.22c3.12 40.976 19.417 23.314 22.779 41.27 5.59 29.848 32.016 51.436 48.466 58.893 9.597 4.348 19.48 6.53 29.871 6.704v.009c.036 0 .072-.004.108-.004s.072.004.108.004v-.009c10.39-.174 20.272-2.355 29.871-6.704 16.45-7.457 42.876-29.045 48.466-58.893 3.362-17.955 19.659-.294 22.779-41.27 0-16.33-8.898-20.394-8.898-20.394s4.523-24.171 6.295-42.77C340.854 59.877 325.129 0 241.25 0c-.367 0-.707.02-1.065.024l-.038-.001V.019l-.108.002-.108-.002v.005l-.038.001c-.358-.005-.698-.024-1.065-.024-83.878 0-99.604 59.877-97.409 83.056 1.771 18.599 6.295 42.77 6.295 42.77s-8.9 4.063-8.9 20.393zM430.313 347.371c-42.308-21.523-103.63-48.406-106.573-49.355-.033-.012-.058-.014-.09-.024a16.363 16.363 0 00-5.504-.953c-7.188 0-13.285 4.604-15.547 11.021l-.036-.021c-10.92 26.315-30.979 73.223-43.434 95.842l-3-63.413s18.705-39.699 20.752-43.336c4.82-8.525.479-15.783-8.557-15.783h-55.36c-9.036 0-13.376 7.258-8.557 15.783 2.048 3.637 20.752 43.336 20.752 43.336l-2.999 63.413c-12.455-22.619-32.514-69.524-43.434-95.842l-.036.021c-2.262-6.414-8.359-11.021-15.547-11.021-1.933 0-3.783.34-5.504.953-.032.012-.057.015-.09.024-2.942.949-64.265 27.832-106.573 49.355-19 9.666-30.467 21.688-30.467 34.34v99.58H460.78v-99.58c-.001-12.652-11.467-24.674-30.467-34.34z"/></symbol><symbol fill="currentColor" viewBox="-19 -32 630.665 630" id="user-1" xmlns="http://www.w3.org/2000/svg"><path d="M212.39 263.418c72.887 0 131.977-59.09 131.977-131.984 0-72.887-59.09-131.977-131.976-131.977-72.891 0-131.98 59.09-131.98 131.977.07 72.863 59.116 131.91 131.98 131.984zm0-238.988c59.094 0 107.008 47.91 107.008 107.004 0 59.101-47.914 107.011-107.007 107.011-59.098 0-107.008-47.91-107.008-107.011.07-59.067 47.937-106.938 107.008-107.004zm0 0M528.29 289.012a12.432 12.432 0 00-17.606 0l-32.59 32.586-80.41 80.414c-37.551-67.157-108.477-108.754-185.418-108.754C95.27 293.258 0 388.528 0 505.52c.02 6.886 5.598 12.468 12.484 12.488H322.27l-10.243 30.59a12.29 12.29 0 003 12.734 12.556 12.556 0 008.86 3.625 14.74 14.74 0 004-.625l88.773-29.594c.13 0 .13 0 .25-.125.399-.11.777-.281 1.125-.5a.415.415 0 00.25-.125c.375-.246.875-.5 1.25-.75.375-.246.75-.625 1.121-.87.125-.13.254-.13.254-.25.121-.126.371-.25.496-.505l133.602-133.222 32.594-32.586A12.46 12.46 0 00591.25 357a12.44 12.44 0 00-3.648-8.805zM412.913 505.145l-41.578-41.579L486.832 348.07l41.582 41.578zM25.47 492.906c6.496-97.511 87.781-174.804 186.922-174.804 70.414.101 134.859 39.582 166.937 102.265l-34.46 34.457-.5.504c-.126.121-.126.25-.247.25a16.877 16.877 0 00-1.625 2.496.432.432 0 01-.129.246c-.12.38-.375.754-.496 1.13 0 .12 0 .12-.125.25l-11.113 33.335H25.469zm333.758-6.242l30.59 30.59-45.95 15.36zM546.14 371.918l-41.575-41.578 14.856-14.856 41.582 41.579zm0 0"/></symbol><symbol fill="currentColor" viewBox="0 0 512 512" id="verified" xmlns="http://www.w3.org/2000/svg"><path d="M437.019 74.98C388.667 26.629 324.38 0 256 0 187.619 0 123.331 26.629 74.98 74.98 26.628 123.332 0 187.62 0 256s26.628 132.667 74.98 181.019C123.332 485.371 187.619 512 256 512c68.38 0 132.667-26.629 181.019-74.981C485.371 388.667 512 324.38 512 256s-26.629-132.667-74.981-181.02zM256 482C131.383 482 30 380.617 30 256S131.383 30 256 30s226 101.383 226 226-101.383 226-226 226z"/><path d="M378.305 173.859c-5.857-5.856-15.355-5.856-21.212.001L224.634 306.319l-69.727-69.727c-5.857-5.857-15.355-5.857-21.213 0-5.858 5.857-5.858 15.355 0 21.213l80.333 80.333a14.953 14.953 0 0010.606 4.393c3.838 0 7.678-1.465 10.606-4.393l143.066-143.066c5.858-5.857 5.858-15.355 0-21.213z"/></symbol><symbol fill="currentColor" viewBox="0 0 322 322" id="viber" xmlns="http://www.w3.org/2000/svg"><path d="M275.445 135.123c.387-45.398-38.279-87.016-86.192-92.771-.953-.113-1.991-.285-3.09-.467-2.372-.393-4.825-.797-7.3-.797-9.82 0-12.445 6.898-13.136 11.012-.672 4-.031 7.359 1.902 9.988 3.252 4.422 8.974 5.207 13.57 5.836 1.347.186 2.618.359 3.682.598 43.048 9.619 57.543 24.742 64.627 67.424.173 1.043.251 2.328.334 3.691.309 5.102.953 15.717 12.365 15.717h.001c.95 0 1.971-.082 3.034-.244 10.627-1.615 10.294-11.318 10.134-15.98-.045-1.313-.088-2.555.023-3.381.03-.208.045-.417.046-.626z"/><path d="M176.077 25.688c1.275.092 2.482.18 3.487.334 70.689 10.871 103.198 44.363 112.207 115.605.153 1.211.177 2.688.202 4.252.09 5.566.275 17.145 12.71 17.385l.386.004c3.9 0 7.002-1.176 9.221-3.498 3.871-4.049 3.601-10.064 3.383-14.898-.053-1.186-.104-2.303-.091-3.281.899-72.862-62.171-138.933-134.968-141.39-.302-.01-.59.006-.881.047a6.09 6.09 0 01-.862.047c-.726 0-1.619-.063-2.566-.127C177.16.09 175.862 0 174.546 0c-11.593 0-13.797 8.24-14.079 13.152-.65 11.352 10.332 12.151 15.61 12.536zM288.36 233.703a224.924 224.924 0 01-4.512-3.508c-7.718-6.211-15.929-11.936-23.87-17.473a1800.92 1800.92 0 01-4.938-3.449c-10.172-7.145-19.317-10.617-27.957-10.617-11.637 0-21.783 6.43-30.157 19.109-3.71 5.621-8.211 8.354-13.758 8.354-3.28 0-7.007-.936-11.076-2.783-32.833-14.889-56.278-37.717-69.685-67.85-6.481-14.564-4.38-24.084 7.026-31.832 6.477-4.396 18.533-12.58 17.679-28.252-.967-17.797-40.235-71.346-56.78-77.428-7.005-2.576-14.365-2.6-21.915-.06-19.02 6.394-32.669 17.623-39.475 32.471-6.577 14.347-6.28 31.193.859 48.717 20.638 50.666 49.654 94.84 86.245 131.293 35.816 35.684 79.837 64.914 130.839 86.875 4.597 1.978 9.419 3.057 12.94 3.844 1.2.27 2.236.5 2.991.707.415.113.843.174 1.272.178l.403.002h.002c23.988 0 52.791-21.92 61.637-46.91 7.75-21.882-6.4-32.698-17.77-41.388zM186.687 83.564c-4.107.104-12.654.316-15.653 9.021-1.403 4.068-1.235 7.6.5 10.498 2.546 4.252 7.424 5.555 11.861 6.27 16.091 2.582 24.355 11.48 26.008 28 .768 7.703 5.955 13.082 12.615 13.082h.001c.492 0 .995-.029 1.496-.09 8.01-.953 11.893-6.838 11.542-17.49.128-11.117-5.69-23.738-15.585-33.791-9.929-10.084-21.898-15.763-32.785-15.5z"/></symbol><symbol fill="currentColor" viewBox="0 0 304.36 304.36" id="vk" xmlns="http://www.w3.org/2000/svg"><path fill-rule="evenodd" d="M261.945 175.576c10.096 9.857 20.752 19.131 29.807 29.982 4 4.822 7.787 9.798 10.684 15.394 4.105 7.955.387 16.709-6.746 17.184l-44.34-.02c-11.436.949-20.559-3.655-28.23-11.474-6.139-6.253-11.824-12.908-17.727-19.372-2.42-2.642-4.953-5.128-7.979-7.093-6.053-3.929-11.307-2.726-14.766 3.587-3.523 6.421-4.322 13.531-4.668 20.687-.475 10.441-3.631 13.186-14.119 13.664-22.414 1.057-43.686-2.334-63.447-13.641-17.422-9.968-30.932-24.04-42.691-39.971-22.895-31.021-40.428-65.108-56.186-100.15C-2.01 76.458.584 72.22 9.295 72.07c14.465-.281 28.928-.261 43.41-.02 5.879.086 9.771 3.458 12.041 9.012 7.826 19.243 17.402 37.551 29.422 54.521 3.201 4.518 6.465 9.036 11.113 12.216 5.142 3.521 9.057 2.354 11.476-3.374 1.535-3.632 2.207-7.544 2.553-11.434 1.146-13.383 1.297-26.743-.713-40.079-1.234-8.323-5.922-13.711-14.227-15.286-4.238-.803-3.607-2.38-1.555-4.799 3.564-4.172 6.916-6.769 13.598-6.769h50.111c7.889 1.557 9.641 5.101 10.721 13.039l.043 55.663c-.086 3.073 1.535 12.192 7.07 14.226 4.43 1.448 7.35-2.096 10.008-4.905 11.998-12.734 20.561-27.783 28.211-43.366 3.395-6.852 6.314-13.968 9.143-21.078 2.096-5.276 5.385-7.872 11.328-7.757l48.229.043c1.43 0 2.877.021 4.262.258 8.127 1.385 10.354 4.881 7.844 12.817-3.955 12.451-11.65 22.827-19.174 33.251-8.043 11.129-16.645 21.877-24.621 33.072-7.328 10.223-6.746 15.376 2.357 24.255zm0 0" clip-rule="evenodd"/></symbol><symbol fill="currentColor" viewBox="0 0 30.667 30.667" id="whatsapp" xmlns="http://www.w3.org/2000/svg"><path d="M30.667 14.939c0 8.25-6.74 14.938-15.056 14.938a15.1 15.1 0 01-7.276-1.857L0 30.667l2.717-8.017a14.787 14.787 0 01-2.159-7.712C.559 6.688 7.297 0 15.613 0c8.315.002 15.054 6.689 15.054 14.939zM15.61 2.382c-6.979 0-12.656 5.634-12.656 12.56 0 2.748.896 5.292 2.411 7.362l-1.58 4.663 4.862-1.545c2 1.312 4.393 2.076 6.963 2.076 6.979 0 12.658-5.633 12.658-12.559C28.27 8.016 22.59 2.382 15.61 2.382zm7.604 15.998c-.094-.151-.34-.243-.708-.427-.367-.184-2.184-1.069-2.521-1.189-.34-.123-.586-.185-.832.182-.243.367-.951 1.191-1.168 1.437-.215.245-.43.276-.799.095-.369-.186-1.559-.57-2.969-1.817-1.097-.972-1.838-2.169-2.052-2.536-.217-.366-.022-.564.161-.746.165-.165.369-.428.554-.643.185-.213.246-.364.369-.609.121-.245.06-.458-.031-.643-.092-.184-.829-1.984-1.138-2.717-.307-.732-.614-.611-.83-.611-.215 0-.461-.03-.707-.03s-.646.089-.983.456-1.291 1.252-1.291 3.054c0 1.804 1.321 3.543 1.506 3.787.186.243 2.554 4.062 6.305 5.528 3.753 1.465 3.753.976 4.429.914.678-.062 2.184-.885 2.49-1.739.308-.858.308-1.593.215-1.746z"/></symbol><symbol fill="currentColor" viewBox="0 0 550.801 550.801" id="xls" xmlns="http://www.w3.org/2000/svg"><path d="M488.432 197.019h-13.226v-63.816c0-.398-.063-.799-.111-1.205-.021-2.531-.833-5.021-2.568-6.992L366.325 3.694c-.032-.031-.063-.042-.085-.076-.633-.707-1.371-1.295-2.151-1.804-.231-.155-.464-.285-.706-.422a11.325 11.325 0 00-2.131-.896c-.2-.053-.38-.135-.58-.188A10.828 10.828 0 00358.193 0H97.2C85.282 0 75.6 9.693 75.6 21.601v175.413H62.377c-17.049 0-30.873 13.818-30.873 30.873v160.545c0 17.038 13.824 30.87 30.873 30.87h13.224V529.2c0 11.907 9.682 21.601 21.6 21.601h356.4c11.907 0 21.6-9.693 21.6-21.601V419.302h13.226c17.044 0 30.871-13.827 30.871-30.87v-160.54c-.001-17.06-13.818-30.873-30.866-30.873zM97.2 21.601h250.193v110.51c0 5.967 4.841 10.8 10.8 10.8H453.6v54.108H97.2V21.601zm242.362 332.743v31.324H236.509V220.704h37.46v133.64h65.593zM74.25 385.663l47.73-83.458-46.019-81.501h42.833l14.439 30.099c4.899 10.03 8.572 18.116 12.49 27.414h.483c3.926-10.529 7.101-17.872 11.259-27.414l13.954-30.099h42.588l-46.509 80.525 48.961 84.438h-43.081l-14.929-29.858c-6.115-11.507-10.036-20.07-14.684-29.615h-.49c-3.431 9.55-7.583 18.119-12.722 29.615l-13.711 29.858H74.25v-.004zm379.351 137.69H97.2V419.302h356.4v104.051zm-51.638-135.228c-18.837 0-37.446-4.904-46.738-10.04l7.578-30.839c10.04 5.136 25.46 10.283 41.375 10.283 17.139 0 26.188-7.099 26.188-17.867 0-10.283-7.831-16.157-27.659-23.256-27.411-9.55-45.282-24.722-45.282-48.718 0-28.15 23.498-49.684 62.427-49.684 18.594 0 32.305 3.927 42.093 8.322l-8.322 30.109c-6.607-3.186-18.361-7.834-34.509-7.834-16.152 0-23.983 7.338-23.983 15.913 0 10.525 9.291 15.18 30.591 23.258 29.125 10.769 42.836 25.936 42.836 49.191-.013 27.664-21.301 51.162-66.595 51.162z"/></symbol><symbol fill="currentColor" viewBox="0 0 511.626 511.627" id="youtube" xmlns="http://www.w3.org/2000/svg"><path d="M511.339 212.987c-.186-10.277-1-23.271-2.423-38.97-1.431-15.708-3.478-29.746-6.14-42.115-3.046-13.893-9.661-25.6-19.842-35.117-10.181-9.519-22.031-15.037-35.549-16.562-42.258-4.755-106.115-7.135-191.573-7.135-85.459 0-149.317 2.38-191.572 7.135-13.516 1.524-25.319 7.043-35.404 16.562-10.089 9.514-16.656 21.221-19.702 35.117-2.852 12.373-4.996 26.41-6.423 42.115-1.425 15.699-2.235 28.688-2.424 38.97C.094 223.265 0 237.539 0 255.813c0 18.272.094 32.55.288 42.826.189 10.284.999 23.271 2.424 38.969 1.427 15.707 3.474 29.745 6.139 42.116 3.046 13.897 9.659 25.602 19.842 35.115 10.185 9.517 22.036 15.036 35.548 16.56 42.255 4.76 106.109 7.139 191.572 7.139 85.466 0 149.315-2.379 191.573-7.139 13.518-1.523 25.316-7.043 35.405-16.56 10.089-9.514 16.652-21.225 19.698-35.115 2.854-12.371 4.996-26.409 6.427-42.116 1.423-15.697 2.231-28.691 2.423-38.969.191-10.276.287-24.554.287-42.826 0-18.274-.095-32.548-.287-42.826zm-154.456 58.244L210.706 362.59c-2.666 1.903-5.905 2.854-9.71 2.854-2.853 0-5.803-.764-8.848-2.286-6.28-3.422-9.419-8.754-9.419-15.985V164.454c0-7.229 3.14-12.561 9.419-15.986 6.473-3.431 12.657-3.239 18.558.571l146.178 91.36c5.708 3.23 8.562 8.372 8.562 15.415 0 7.04-2.855 12.184-8.563 15.417z"/></symbol></svg>