<?xml version="1.0" encoding="utf-8"?><svg xmlns="http://www.w3.org/2000/svg" xmlns:xlink="http://www.w3.org/1999/xlink"><symbol fill="currentColor" viewBox="0 0 24 24" id="arrow-down" xmlns="http://www.w3.org/2000/svg"><path d="M7.41 7.84L12 12.42l4.59-4.58L18 9.25l-6 6-6-6z"/></symbol><symbol fill="currentColor" viewBox="0 0 31.5 31.5" id="arrow-left-swiper" xmlns="http://www.w3.org/2000/svg"><path d="M10.3 26.5c.4.4 1.1.4 1.6 0 .4-.4.4-1.1 0-1.6l-8-8h26.6c.6 0 1.1-.5 1.1-1.1s-.5-1.1-1.1-1.1H3.8l8-8c.4-.4.4-1.2 0-1.6-.4-.4-1.2-.4-1.6 0l-10 10c-.4.4-.4 1.1 0 1.6l10.1 9.8z" class="st0"/></symbol><symbol fill="currentColor" viewBox="0 0 31.49 31.49" id="arrow-right-swiper" xmlns="http://www.w3.org/2000/svg"><path d="M21.205 5.007a1.112 1.112 0 00-1.587 0 1.12 1.12 0 000 1.571l8.047 8.047H1.111A1.106 1.106 0 000 15.737c0 .619.492 1.127 1.111 1.127h26.554l-8.047 8.032c-.429.444-.429 1.159 0 1.587a1.112 1.112 0 001.587 0l9.952-9.952a1.093 1.093 0 000-1.571l-9.952-9.953z"/></symbol><symbol fill="currentColor" viewBox="0 0 24 24" id="arrow-up" xmlns="http://www.w3.org/2000/svg"><path d="M7.41 15.41L12 10.83l4.59 4.58L18 14l-6-6-6 6z"/><path fill="none" d="M0 0h24v24H0z"/></symbol><symbol fill="currentColor" viewBox="0 0 512 512" id="briefcase" xmlns="http://www.w3.org/2000/svg"><path d="M469.333 106.667H362.667V85.333c0-23.531-19.135-42.667-42.667-42.667H192c-23.531 0-42.667 19.135-42.667 42.667v21.333H42.667C19.135 106.667 0 125.802 0 149.333v64C0 236.865 19.135 256 42.667 256h170.667v-10.667a10.66 10.66 0 0110.667-10.667h64a10.66 10.66 0 0110.667 10.667V256h170.667c23.53 0 42.665-19.135 42.665-42.667v-64c0-23.531-19.135-42.666-42.667-42.666zm-149.333 0H192V85.333h128v21.334zM506.083 267.51a10.68 10.68 0 00-11.188 1.052c-7.583 5.74-16.417 8.771-25.563 8.771H298.667v32A10.66 10.66 0 01288 320h-64a10.66 10.66 0 01-10.667-10.667v-32H42.667c-9.146 0-17.979-3.031-25.563-8.771a10.593 10.593 0 00-11.188-1.052A10.666 10.666 0 000 277.063v149.604c0 23.531 19.135 42.667 42.667 42.667h426.667c23.531 0 42.667-19.135 42.667-42.667V277.063a10.668 10.668 0 00-5.918-9.553z"/></symbol><symbol fill="currentColor" viewBox="0 0 30 16" id="burger" xmlns="http://www.w3.org/2000/svg"><path d="M0 0h30v2H0zM0 14h30v2H0zM0 7h30v2H0z"/></symbol><symbol fill="currentColor" viewBox="0 0 97.16 97.16" id="clock" xmlns="http://www.w3.org/2000/svg"><path d="M48.58 0C21.793 0 0 21.793 0 48.58s21.793 48.58 48.58 48.58 48.58-21.793 48.58-48.58S75.367 0 48.58 0zm0 86.823c-21.087 0-38.244-17.155-38.244-38.243S27.493 10.337 48.58 10.337 86.824 27.492 86.824 48.58 69.667 86.823 48.58 86.823z"/><path d="M73.898 47.08H52.066V20.83a4 4 0 00-8 0v30.25a4 4 0 004 4h25.832a4 4 0 000-8z"/></symbol><symbol fill="currentColor" viewBox="0 0 24 24" id="close" xmlns="http://www.w3.org/2000/svg"><path d="M19 6.41L17.59 5 12 10.59 6.41 5 5 6.41 10.59 12 5 17.59 6.41 19 12 13.41 17.59 19 19 17.59 13.41 12z"/><path fill="none" d="M0 0h24v24H0z"/></symbol><symbol fill="currentColor" viewBox="0 0 550.795 550.795" id="email" xmlns="http://www.w3.org/2000/svg"><path d="M501.613 491.782c12.381 0 23.109-4.088 32.229-12.16L377.793 323.567a2878.213 2878.213 0 00-10.801 7.767c-11.678 8.604-21.156 15.318-28.434 20.129-7.277 4.822-16.959 9.737-29.045 14.755-12.094 5.024-23.361 7.528-33.813 7.528h-.612c-10.453 0-21.72-2.503-33.813-7.528-12.093-5.018-21.775-9.933-29.045-14.755-7.277-4.811-16.75-11.524-28.434-20.129a1351.934 1351.934 0 00-10.771-7.809L16.946 479.622c9.119 8.072 19.854 12.16 32.234 12.16h452.433zM31.047 225.299C19.37 217.514 9.015 208.598 0 198.555V435.98l137.541-137.541c-27.516-19.21-62.969-43.562-106.494-73.14zM520.059 225.299c-41.865 28.336-77.447 52.73-106.75 73.195l137.486 137.492V198.555c-8.815 9.841-19.059 18.751-30.736 26.744z"/><path d="M501.613 59.013H49.181c-15.784 0-27.919 5.33-36.42 15.979C4.253 85.646.006 98.97.006 114.949c0 12.907 5.636 26.892 16.903 41.959 11.267 15.061 23.256 26.891 35.961 35.496 6.965 4.921 27.969 19.523 63.012 43.801a20367.497 20367.497 0 0149.505 34.395 8855.122 8855.122 0 0131.022 21.701c.985.691 2.534 1.799 4.59 3.269 2.215 1.591 5.018 3.61 8.476 6.107 6.659 4.816 12.191 8.709 16.597 11.683 4.4 2.975 9.731 6.298 15.985 9.988 6.249 3.685 12.143 6.456 17.675 8.299 5.533 1.842 10.655 2.766 15.367 2.766h.612c4.711 0 9.834-.924 15.368-2.766 5.531-1.843 11.42-4.608 17.674-8.299 6.248-3.69 11.572-7.02 15.986-9.988 4.406-2.974 9.938-6.866 16.598-11.683 3.451-2.497 6.254-4.517 8.469-6.102a643.575 643.575 0 014.596-3.274c6.684-4.651 17.1-11.892 31.104-21.616 25.482-17.705 63.01-43.764 112.742-78.281 14.957-10.447 27.453-23.054 37.496-37.803 10.025-14.749 15.051-30.22 15.051-46.408 0-13.525-4.873-25.098-14.598-34.737-9.736-9.627-21.265-14.443-34.584-14.443z"/></symbol><symbol fill="currentColor" viewBox="0 0 96.124 96.123" id="facebook" xmlns="http://www.w3.org/2000/svg"><path d="M72.089.02L59.624 0C45.62 0 36.57 9.285 36.57 23.656v10.907H24.037a1.96 1.96 0 00-1.96 1.961v15.803a1.96 1.96 0 001.96 1.96H36.57v39.876a1.96 1.96 0 001.96 1.96h16.352a1.96 1.96 0 001.96-1.96V54.287h14.654a1.96 1.96 0 001.96-1.96l.006-15.803a1.963 1.963 0 00-1.961-1.961H56.842v-9.246c0-4.444 1.059-6.7 6.848-6.7l8.397-.003a1.96 1.96 0 001.959-1.96V1.98A1.96 1.96 0 0072.089.02z"/></symbol><symbol fill="currentColor" viewBox="0 0 550.801 550.801" id="pdf" xmlns="http://www.w3.org/2000/svg"><path d="M160.381 282.225c0-14.832-10.299-23.684-28.474-23.684-7.414 0-12.437.715-15.071 1.432V307.6c3.114.707 6.942.949 12.192.949 19.391 0 31.353-9.809 31.353-26.324zM272.875 259.019c-8.145 0-13.397.717-16.519 1.435v105.523c3.116.729 8.142.729 12.69.729 33.017.231 54.554-17.946 54.554-56.474.242-33.513-19.385-51.213-50.725-51.213z"/><path d="M488.426 197.019H475.2v-63.816c0-.398-.063-.799-.116-1.202-.021-2.534-.827-5.023-2.562-6.995L366.325 3.694c-.032-.031-.063-.042-.085-.076-.633-.707-1.371-1.295-2.151-1.804a9.495 9.495 0 00-.706-.419 11.131 11.131 0 00-2.131-.896c-.2-.056-.38-.138-.58-.19A10.774 10.774 0 00358.193 0H97.2C85.282 0 75.6 9.693 75.6 21.601v175.413H62.377c-17.049 0-30.873 13.818-30.873 30.873v160.545c0 17.043 13.824 30.87 30.873 30.87h13.224V529.2c0 11.907 9.682 21.601 21.6 21.601h356.4c11.907 0 21.6-9.693 21.6-21.601V419.302h13.226c17.044 0 30.871-13.827 30.871-30.87v-160.54c-.001-17.054-13.828-30.873-30.872-30.873zM97.2 21.605h250.193v110.513c0 5.967 4.841 10.8 10.8 10.8H453.6v54.108H97.2V21.605zm265.159 287.418c0 30.876-11.243 52.165-26.82 65.333-16.971 14.117-42.82 20.814-74.396 20.814-18.9 0-32.297-1.197-41.401-2.389V234.365c13.399-2.149 30.878-3.346 49.304-3.346 30.612 0 50.478 5.508 66.039 17.226 16.743 12.445 27.274 32.302 27.274 60.778zM80.7 393.499V234.365c11.241-1.904 27.042-3.346 49.296-3.346 22.491 0 38.527 4.308 49.291 12.928 10.292 8.131 17.215 21.534 17.215 37.328 0 15.799-5.25 29.198-14.829 38.285-12.442 11.728-30.865 16.996-52.407 16.996-4.778 0-9.1-.243-12.435-.723v57.67H80.7v-.004zm372.901 129.854H97.2V419.302h356.4v104.051zm31.297-261.226h-61.989v36.851h57.913v29.674h-57.913V393.5h-36.593V232.216h98.582v29.911z"/></symbol><symbol fill="currentColor" viewBox="0 0 348.077 348.077" id="phone" xmlns="http://www.w3.org/2000/svg"><path d="M340.273 275.083l-53.755-53.761c-10.707-10.664-28.438-10.34-39.518.744l-27.082 27.076a792.327 792.327 0 01-5.344-2.973c-17.102-9.476-40.509-22.464-65.14-47.113-24.704-24.701-37.704-48.144-47.209-65.257-1.003-1.813-1.964-3.561-2.913-5.221l18.176-18.149 8.936-8.947c11.097-11.1 11.403-28.826.721-39.521L73.39 8.194c-10.682-10.68-28.421-10.356-39.518.744l-15.15 15.237.414.411c-5.08 6.482-9.325 13.958-12.484 22.02C3.74 54.28 1.927 61.603 1.098 68.941-6 127.785 20.89 181.564 93.866 254.541c100.875 100.868 182.167 93.248 185.674 92.876 7.638-.913 14.958-2.738 22.397-5.627 7.992-3.122 15.463-7.361 21.941-12.43l.331.294 15.348-15.029c11.074-11.098 11.393-28.83.716-39.542z"/></symbol><symbol fill="currentColor" viewBox="0 0 97.713 97.713" id="pin" xmlns="http://www.w3.org/2000/svg"><path d="M48.855 0C29.021 0 12.883 16.138 12.883 35.974c0 5.174 1.059 10.114 3.146 14.684 8.994 19.681 26.238 40.46 31.31 46.359a2.003 2.003 0 003.034 0c5.07-5.898 22.314-26.676 31.311-46.359 2.088-4.57 3.146-9.51 3.146-14.684C84.828 16.138 68.69 0 48.855 0zm0 54.659c-10.303 0-18.686-8.383-18.686-18.686 0-10.304 8.383-18.687 18.686-18.687s18.686 8.383 18.686 18.687c.001 10.303-8.382 18.686-18.686 18.686z"/></symbol><symbol fill="currentColor" viewBox="0 0 232 232" id="print" xmlns="http://www.w3.org/2000/svg"><path d="M50 .5h132v33H50zM232 49.5H0v132h33v-49h165v49h34v-132zm-17 33h-16v-16h16v16z"/><path d="M50 148.5h132v83H50z"/></symbol><symbol fill="currentColor" viewBox="0 0 512 512" id="search" xmlns="http://www.w3.org/2000/svg"><path d="M495 466.2L377.2 348.4c29.2-35.6 46.8-81.2 46.8-130.9C424 103.5 331.5 11 217.5 11 103.4 11 11 103.5 11 217.5S103.4 424 217.5 424c49.7 0 95.2-17.5 130.8-46.7L466.1 495c8 8 20.9 8 28.9 0 8-7.9 8-20.9 0-28.8zm-277.5-83.3C126.2 382.9 52 308.7 52 217.5S126.2 52 217.5 52C308.7 52 383 126.3 383 217.5s-74.3 165.4-165.5 165.4z"/></symbol><symbol fill="currentColor" viewBox="0 0 24 24" id="star-filled" xmlns="http://www.w3.org/2000/svg"><path fill="none" d="M0 0h24v24H0z"/><path d="M12 17.27L18.18 21l-1.64-7.03L22 9.24l-7.19-.61L12 2 9.19 8.63 2 9.24l5.46 4.73L5.82 21z"/><path fill="none" d="M0 0h24v24H0z"/></symbol><symbol fill="currentColor" viewBox="0 0 24 24" id="star-stroke" xmlns="http://www.w3.org/2000/svg"><path d="M22 9.24l-7.19-.62L12 2 9.19 8.63 2 9.24l5.46 4.73L5.82 21 12 17.27 18.18 21l-1.63-7.03L22 9.24zM12 15.4l-3.76 2.27 1-4.28-3.32-2.88 4.38-.38L12 6.1l1.71 4.04 4.38.38-3.32 2.88 1 4.28L12 15.4z"/><path fill="none" d="M0 0h24v24H0z"/></symbol><symbol viewBox="0 0 549.5 391.75" id="truck" xmlns="http://www.w3.org/2000/svg"><defs><linearGradient id="Безымянный_градиент_89" x1="357.54" x2="357.54" y1="179.08" y2="346.42" gradientTransform="matrix(-1 0 0 1 549.5 0)" gradientUnits="userSpaceOnUse"><stop offset="0" stop-color="#fff" stop-opacity="0"/><stop offset=".09" stop-color="#fefcf8" stop-opacity=".04"/><stop offset=".24" stop-color="#fcf5e5" stop-opacity=".13"/><stop offset=".41" stop-color="#f8e8c5" stop-opacity=".29"/><stop offset=".62" stop-color="#f2d79a" stop-opacity=".51"/><stop offset=".84" stop-color="#ebc263" stop-opacity=".78"/><stop offset="1" stop-color="#e6b138"/></linearGradient><style>.cls-1{fill:#dbd9da}.cls-2{fill:#322e2f}.cls-3{fill:#423e41}.cls-7{fill:#785d43}</style></defs><g id="Слой_2" data-name="Слой 2"><g id="Слой_18" data-name="Слой 18"><path d="M332.27 38.71h34.54a4.62 4.62 0 014.62 4.62 4.63 4.63 0 01-4.62 4.67h-34.54a4.62 4.62 0 01-4.62-4.62 4.62 4.62 0 014.62-4.62z" class="cls-1" transform="rotate(180 349.54 43.335)"/><path d="M339.46 31.25h20.17v28.83h-20.17z" class="cls-1" transform="rotate(-180 349.54 45.665)"/></g><path id="Слой_20" d="M196.13 207.08v7.75l-48-2.08-.3-12.97 48.3 7.3z" class="cls-2" data-name="Слой 20"/><path id="Слой_15" d="M207.25 231.5v-18.13l-74.25-3.7-10 13.75 84.25 8.08z" class="cls-1" data-name="Слой 15"/><path id="Слой_19" d="M263.7 202.28l7.72-4.56-23.31-37.14-7.73 4.55 23.32 37.15z" class="cls-3" data-name="Слой 19"/><rect id="Слой_6" width="16.33" height="34" y="225.75" fill="#a82b0e" data-name="Слой 6" rx="8.17" transform="rotate(-180 8.165 242.75)"/><path id="Слой_12" d="M293.04 213.98l-17.48-44.23-27.89 26.33 24.34 59.67 21.03-41.77z" class="cls-1" data-name="Слой 12"/><path id="Слой_11" d="M124.75 220.33l92.25 8.25v22.5h51.75l26-51.25 27.75 64.25-183.36 3.78-19.85-16.13 5.46-31.4z" class="cls-2" data-name="Слой 11"/><path id="Слой_10" d="M230.85 67.75a11.86 11.86 0 0111.05 7.46l74 183.79H147.26l-20.61-16.76L131 71.72v-.3a3.67 3.67 0 013.67-3.67h96.18m0-12h-96.18A15.66 15.66 0 00119 71.42l-4.5 176.41L143 271h187.33v-8.25L253 70.73a23.91 23.91 0 00-22.18-15z" class="cls-2" data-name="Слой 10"/><g id="Слой_16" data-name="Слой 16"><path d="M335 55.75h31.33v207H335z" class="cls-2" transform="rotate(-180 350.665 159.25)"/><path d="M325.67 55.75h14.92v17.17h-14.92z" class="cls-2" transform="rotate(-180 333.125 64.335)"/></g><path id="Слой_5" fill="#fbd225" d="M18.75 346.42h342.08a14.75 14.75 0 0014.75-14.75v-62.23a9.64 9.64 0 00-9.69-9.64l-211.67 1A32.07 32.07 0 01121 231.29l-4.19-52.21H42.17c-17 0-34 14-33.84 36.34V336a10.43 10.43 0 0010.42 10.42z" data-name="Слой 5"/><path id="Слой_5_копия_" fill="url(#Безымянный_градиент_89)" d="M18.75 346.42h342.08a14.75 14.75 0 0014.75-14.75v-62.23a9.64 9.64 0 00-9.69-9.64l-211.67 1A32.07 32.07 0 01121 231.29l-4.19-52.21H42.17c-17 0-34 14-33.84 36.34V336a10.43 10.43 0 0010.42 10.42z" data-name="Слой 5 (копия)"/><g id="Слой_9" data-name="Слой 9"><rect width="6.25" height="42.5" x="93.5" y="205.33" class="cls-3" rx="3.12" transform="rotate(180 96.625 226.585)"/><rect width="6.25" height="42.5" x="83.33" y="205.33" class="cls-3" rx="3.12" transform="rotate(180 86.46 226.585)"/><rect width="6.25" height="42.5" x="73.54" y="205.33" class="cls-3" rx="3.12" transform="rotate(-180 76.665 226.585)"/><rect width="6.25" height="42.5" x="63.38" y="205.33" class="cls-3" rx="3.12" transform="rotate(-180 66.5 226.585)"/><rect width="6.25" height="42.5" x="52.79" y="205.33" class="cls-3" rx="3.12" transform="rotate(180 55.915 226.585)"/><rect width="6.25" height="42.5" x="42.63" y="205.33" class="cls-3" rx="3.12" transform="rotate(180 45.75 226.585)"/><rect width="6.25" height="42.5" x="32.63" y="205.33" class="cls-3" rx="3.12" transform="rotate(180 35.75 226.585)"/></g><g id="Слой_7" data-name="Слой 7"><circle cx="298.46" cy="331.38" r="60.37" class="cls-2"/><circle cx="298.46" cy="330.63" r="26.45" class="cls-1"/></g><g id="Слой_7_копия_" data-name="Слой 7 (копия)"><circle cx="65.52" cy="354.62" r="37.13" class="cls-2"/><circle cx="65.52" cy="354.17" r="16.26" class="cls-1"/></g><path id="Слой_14" d="M225.42 178.67a4.41 4.41 0 005.94 1.39l36.7-21.64a4.12 4.12 0 001.46-5.75 4.41 4.41 0 00-5.94-1.39l-36.7 21.64a4.12 4.12 0 00-1.46 5.75z" class="cls-2" data-name="Слой 14"/><g id="Слой_17" data-name="Слой 17"><path d="M549.5 357.08h-177l-2.25-255h4.5l11.25 241 163.5 8.5v5.5zM349.54 8a9.67 9.67 0 11-9.67 9.67A9.68 9.68 0 01349.54 8m0-8a17.67 17.67 0 1017.67 17.67A17.67 17.67 0 00349.54 0z" class="cls-2"/></g><g id="Слой_13" data-name="Слой 13"><path d="M146.45 204.57l50.69 4.62c7.85.71 15.15-2.68 15.29-7.63.13-4.95-7-8.73-14.86-8.44l-45.86 1.68a5.32 5.32 0 00-5.26 5l-4.07-.66c-.07 2.62 1.17 5.16 4.07 5.43z" class="cls-7"/><path d="M155.62 198.1l-4.16-52c-.71-8.93-5.38-16.56-10.28-15.89-4.91.67-7.36 9.27-5.65 18.07l6.85 50.8c.63 3.24 3.25 5.43 5.87 5.07l3.08.38c2.61-.32 4.55-3.14 4.29-6.43z" class="cls-7"/></g><g id="Слой_21" data-name="Слой 21"><path d="M343.51 60.08h7.16V259.9h-7.16z" class="cls-3" transform="rotate(-180 347.085 159.99)"/><path d="M354.94 59.57h3.58v199.82h-3.58z" class="cls-3" transform="rotate(-180 356.73 159.48)"/></g></g></symbol><symbol fill="currentColor" viewBox="0 0 481.291 481.291" id="user" xmlns="http://www.w3.org/2000/svg"><path d="M138.814 146.22c3.12 40.976 19.417 23.314 22.779 41.27 5.59 29.848 32.016 51.436 48.466 58.893 9.597 4.348 19.48 6.53 29.871 6.704v.009c.036 0 .072-.004.108-.004s.072.004.108.004v-.009c10.39-.174 20.272-2.355 29.871-6.704 16.45-7.457 42.876-29.045 48.466-58.893 3.362-17.955 19.659-.294 22.779-41.27 0-16.33-8.898-20.394-8.898-20.394s4.523-24.171 6.295-42.77C340.854 59.877 325.129 0 241.25 0c-.367 0-.707.02-1.065.024l-.038-.001V.019l-.108.002-.108-.002v.005l-.038.001c-.358-.005-.698-.024-1.065-.024-83.878 0-99.604 59.877-97.409 83.056 1.771 18.599 6.295 42.77 6.295 42.77s-8.9 4.063-8.9 20.393zM430.313 347.371c-42.308-21.523-103.63-48.406-106.573-49.355-.033-.012-.058-.014-.09-.024a16.363 16.363 0 00-5.504-.953c-7.188 0-13.285 4.604-15.547 11.021l-.036-.021c-10.92 26.315-30.979 73.223-43.434 95.842l-3-63.413s18.705-39.699 20.752-43.336c4.82-8.525.479-15.783-8.557-15.783h-55.36c-9.036 0-13.376 7.258-8.557 15.783 2.048 3.637 20.752 43.336 20.752 43.336l-2.999 63.413c-12.455-22.619-32.514-69.524-43.434-95.842l-.036.021c-2.262-6.414-8.359-11.021-15.547-11.021-1.933 0-3.783.34-5.504.953-.032.012-.057.015-.09.024-2.942.949-64.265 27.832-106.573 49.355-19 9.666-30.467 21.688-30.467 34.34v99.58H460.78v-99.58c-.001-12.652-11.467-24.674-30.467-34.34z"/></symbol><symbol fill="currentColor" viewBox="0 0 322 322" id="viber" xmlns="http://www.w3.org/2000/svg"><path d="M275.445 135.123c.387-45.398-38.279-87.016-86.192-92.771-.953-.113-1.991-.285-3.09-.467-2.372-.393-4.825-.797-7.3-.797-9.82 0-12.445 6.898-13.136 11.012-.672 4-.031 7.359 1.902 9.988 3.252 4.422 8.974 5.207 13.57 5.836 1.347.186 2.618.359 3.682.598 43.048 9.619 57.543 24.742 64.627 67.424.173 1.043.251 2.328.334 3.691.309 5.102.953 15.717 12.365 15.717h.001c.95 0 1.971-.082 3.034-.244 10.627-1.615 10.294-11.318 10.134-15.98-.045-1.313-.088-2.555.023-3.381.03-.208.045-.417.046-.626z"/><path d="M176.077 25.688c1.275.092 2.482.18 3.487.334 70.689 10.871 103.198 44.363 112.207 115.605.153 1.211.177 2.688.202 4.252.09 5.566.275 17.145 12.71 17.385l.386.004c3.9 0 7.002-1.176 9.221-3.498 3.871-4.049 3.601-10.064 3.383-14.898-.053-1.186-.104-2.303-.091-3.281.899-72.862-62.171-138.933-134.968-141.39-.302-.01-.59.006-.881.047a6.09 6.09 0 01-.862.047c-.726 0-1.619-.063-2.566-.127C177.16.09 175.862 0 174.546 0c-11.593 0-13.797 8.24-14.079 13.152-.65 11.352 10.332 12.151 15.61 12.536zM288.36 233.703a224.924 224.924 0 01-4.512-3.508c-7.718-6.211-15.929-11.936-23.87-17.473a1800.92 1800.92 0 01-4.938-3.449c-10.172-7.145-19.317-10.617-27.957-10.617-11.637 0-21.783 6.43-30.157 19.109-3.71 5.621-8.211 8.354-13.758 8.354-3.28 0-7.007-.936-11.076-2.783-32.833-14.889-56.278-37.717-69.685-67.85-6.481-14.564-4.38-24.084 7.026-31.832 6.477-4.396 18.533-12.58 17.679-28.252-.967-17.797-40.235-71.346-56.78-77.428-7.005-2.576-14.365-2.6-21.915-.06-19.02 6.394-32.669 17.623-39.475 32.471-6.577 14.347-6.28 31.193.859 48.717 20.638 50.666 49.654 94.84 86.245 131.293 35.816 35.684 79.837 64.914 130.839 86.875 4.597 1.978 9.419 3.057 12.94 3.844 1.2.27 2.236.5 2.991.707.415.113.843.174 1.272.178l.403.002h.002c23.988 0 52.791-21.92 61.637-46.91 7.75-21.882-6.4-32.698-17.77-41.388zM186.687 83.564c-4.107.104-12.654.316-15.653 9.021-1.403 4.068-1.235 7.6.5 10.498 2.546 4.252 7.424 5.555 11.861 6.27 16.091 2.582 24.355 11.48 26.008 28 .768 7.703 5.955 13.082 12.615 13.082h.001c.492 0 .995-.029 1.496-.09 8.01-.953 11.893-6.838 11.542-17.49.128-11.117-5.69-23.738-15.585-33.791-9.929-10.084-21.898-15.763-32.785-15.5z"/></symbol><symbol fill="currentColor" viewBox="0 0 304.36 304.36" id="vk" xmlns="http://www.w3.org/2000/svg"><path fill-rule="evenodd" d="M261.945 175.576c10.096 9.857 20.752 19.131 29.807 29.982 4 4.822 7.787 9.798 10.684 15.394 4.105 7.955.387 16.709-6.746 17.184l-44.34-.02c-11.436.949-20.559-3.655-28.23-11.474-6.139-6.253-11.824-12.908-17.727-19.372-2.42-2.642-4.953-5.128-7.979-7.093-6.053-3.929-11.307-2.726-14.766 3.587-3.523 6.421-4.322 13.531-4.668 20.687-.475 10.441-3.631 13.186-14.119 13.664-22.414 1.057-43.686-2.334-63.447-13.641-17.422-9.968-30.932-24.04-42.691-39.971-22.895-31.021-40.428-65.108-56.186-100.15C-2.01 76.458.584 72.22 9.295 72.07c14.465-.281 28.928-.261 43.41-.02 5.879.086 9.771 3.458 12.041 9.012 7.826 19.243 17.402 37.551 29.422 54.521 3.201 4.518 6.465 9.036 11.113 12.216 5.142 3.521 9.057 2.354 11.476-3.374 1.535-3.632 2.207-7.544 2.553-11.434 1.146-13.383 1.297-26.743-.713-40.079-1.234-8.323-5.922-13.711-14.227-15.286-4.238-.803-3.607-2.38-1.555-4.799 3.564-4.172 6.916-6.769 13.598-6.769h50.111c7.889 1.557 9.641 5.101 10.721 13.039l.043 55.663c-.086 3.073 1.535 12.192 7.07 14.226 4.43 1.448 7.35-2.096 10.008-4.905 11.998-12.734 20.561-27.783 28.211-43.366 3.395-6.852 6.314-13.968 9.143-21.078 2.096-5.276 5.385-7.872 11.328-7.757l48.229.043c1.43 0 2.877.021 4.262.258 8.127 1.385 10.354 4.881 7.844 12.817-3.955 12.451-11.65 22.827-19.174 33.251-8.043 11.129-16.645 21.877-24.621 33.072-7.328 10.223-6.746 15.376 2.357 24.255zm0 0" clip-rule="evenodd"/></symbol><symbol fill="currentColor" viewBox="0 0 30.667 30.667" id="whatsapp" xmlns="http://www.w3.org/2000/svg"><path d="M30.667 14.939c0 8.25-6.74 14.938-15.056 14.938a15.1 15.1 0 01-7.276-1.857L0 30.667l2.717-8.017a14.787 14.787 0 01-2.159-7.712C.559 6.688 7.297 0 15.613 0c8.315.002 15.054 6.689 15.054 14.939zM15.61 2.382c-6.979 0-12.656 5.634-12.656 12.56 0 2.748.896 5.292 2.411 7.362l-1.58 4.663 4.862-1.545c2 1.312 4.393 2.076 6.963 2.076 6.979 0 12.658-5.633 12.658-12.559C28.27 8.016 22.59 2.382 15.61 2.382zm7.604 15.998c-.094-.151-.34-.243-.708-.427-.367-.184-2.184-1.069-2.521-1.189-.34-.123-.586-.185-.832.182-.243.367-.951 1.191-1.168 1.437-.215.245-.43.276-.799.095-.369-.186-1.559-.57-2.969-1.817-1.097-.972-1.838-2.169-2.052-2.536-.217-.366-.022-.564.161-.746.165-.165.369-.428.554-.643.185-.213.246-.364.369-.609.121-.245.06-.458-.031-.643-.092-.184-.829-1.984-1.138-2.717-.307-.732-.614-.611-.83-.611-.215 0-.461-.03-.707-.03s-.646.089-.983.456-1.291 1.252-1.291 3.054c0 1.804 1.321 3.543 1.506 3.787.186.243 2.554 4.062 6.305 5.528 3.753 1.465 3.753.976 4.429.914.678-.062 2.184-.885 2.49-1.739.308-.858.308-1.593.215-1.746z"/></symbol><symbol fill="currentColor" viewBox="0 0 511.626 511.627" id="youtube" xmlns="http://www.w3.org/2000/svg"><path d="M511.339 212.987c-.186-10.277-1-23.271-2.423-38.97-1.431-15.708-3.478-29.746-6.14-42.115-3.046-13.893-9.661-25.6-19.842-35.117-10.181-9.519-22.031-15.037-35.549-16.562-42.258-4.755-106.115-7.135-191.573-7.135-85.459 0-149.317 2.38-191.572 7.135-13.516 1.524-25.319 7.043-35.404 16.562-10.089 9.514-16.656 21.221-19.702 35.117-2.852 12.373-4.996 26.41-6.423 42.115-1.425 15.699-2.235 28.688-2.424 38.97C.094 223.265 0 237.539 0 255.813c0 18.272.094 32.55.288 42.826.189 10.284.999 23.271 2.424 38.969 1.427 15.707 3.474 29.745 6.139 42.116 3.046 13.897 9.659 25.602 19.842 35.115 10.185 9.517 22.036 15.036 35.548 16.56 42.255 4.76 106.109 7.139 191.572 7.139 85.466 0 149.315-2.379 191.573-7.139 13.518-1.523 25.316-7.043 35.405-16.56 10.089-9.514 16.652-21.225 19.698-35.115 2.854-12.371 4.996-26.409 6.427-42.116 1.423-15.697 2.231-28.691 2.423-38.969.191-10.276.287-24.554.287-42.826 0-18.274-.095-32.548-.287-42.826zm-154.456 58.244L210.706 362.59c-2.666 1.903-5.905 2.854-9.71 2.854-2.853 0-5.803-.764-8.848-2.286-6.28-3.422-9.419-8.754-9.419-15.985V164.454c0-7.229 3.14-12.561 9.419-15.986 6.473-3.431 12.657-3.239 18.558.571l146.178 91.36c5.708 3.23 8.562 8.372 8.562 15.415 0 7.04-2.855 12.184-8.563 15.417z"/></symbol></svg>