<?xml version="1.0" encoding="utf-8"?><svg xmlns="http://www.w3.org/2000/svg" xmlns:xlink="http://www.w3.org/1999/xlink"><symbol fill="currentColor" viewBox="0 0 24 24" id="arrow-down" xmlns="http://www.w3.org/2000/svg"><path d="M7.41 7.84L12 12.42l4.59-4.58L18 9.25l-6 6-6-6z"/></symbol><symbol fill="currentColor" viewBox="0 0 512 512" id="briefcase" xmlns="http://www.w3.org/2000/svg"><path d="M469.333 106.667H362.667V85.333c0-23.531-19.135-42.667-42.667-42.667H192c-23.531 0-42.667 19.135-42.667 42.667v21.333H42.667C19.135 106.667 0 125.802 0 149.333v64C0 236.865 19.135 256 42.667 256h170.667v-10.667a10.66 10.66 0 0110.667-10.667h64a10.66 10.66 0 0110.667 10.667V256h170.667c23.53 0 42.665-19.135 42.665-42.667v-64c0-23.531-19.135-42.666-42.667-42.666zm-149.333 0H192V85.333h128v21.334zM506.083 267.51a10.68 10.68 0 00-11.188 1.052c-7.583 5.74-16.417 8.771-25.563 8.771H298.667v32A10.66 10.66 0 01288 320h-64a10.66 10.66 0 01-10.667-10.667v-32H42.667c-9.146 0-17.979-3.031-25.563-8.771a10.593 10.593 0 00-11.188-1.052A10.666 10.666 0 000 277.063v149.604c0 23.531 19.135 42.667 42.667 42.667h426.667c23.531 0 42.667-19.135 42.667-42.667V277.063a10.668 10.668 0 00-5.918-9.553z"/></symbol><symbol fill="currentColor" viewBox="0 0 30 16" id="burger" xmlns="http://www.w3.org/2000/svg"><path d="M0 0h30v2H0zM0 14h30v2H0zM0 7h30v2H0z"/></symbol><symbol fill="currentColor" viewBox="0 0 348.077 348.077" id="phone" xmlns="http://www.w3.org/2000/svg"><path d="M340.273 275.083l-53.755-53.761c-10.707-10.664-28.438-10.34-39.518.744l-27.082 27.076a792.327 792.327 0 01-5.344-2.973c-17.102-9.476-40.509-22.464-65.14-47.113-24.704-24.701-37.704-48.144-47.209-65.257-1.003-1.813-1.964-3.561-2.913-5.221l18.176-18.149 8.936-8.947c11.097-11.1 11.403-28.826.721-39.521L73.39 8.194c-10.682-10.68-28.421-10.356-39.518.744l-15.15 15.237.414.411c-5.08 6.482-9.325 13.958-12.484 22.02C3.74 54.28 1.927 61.603 1.098 68.941-6 127.785 20.89 181.564 93.866 254.541c100.875 100.868 182.167 93.248 185.674 92.876 7.638-.913 14.958-2.738 22.397-5.627 7.992-3.122 15.463-7.361 21.941-12.43l.331.294 15.348-15.029c11.074-11.098 11.393-28.83.716-39.542z"/></symbol><symbol fill="currentColor" viewBox="0 0 97.713 97.713" id="pin" xmlns="http://www.w3.org/2000/svg"><path d="M48.855 0C29.021 0 12.883 16.138 12.883 35.974c0 5.174 1.059 10.114 3.146 14.684 8.994 19.681 26.238 40.46 31.31 46.359a2.003 2.003 0 003.034 0c5.07-5.898 22.314-26.676 31.311-46.359 2.088-4.57 3.146-9.51 3.146-14.684C84.828 16.138 68.69 0 48.855 0zm0 54.659c-10.303 0-18.686-8.383-18.686-18.686 0-10.304 8.383-18.687 18.686-18.687s18.686 8.383 18.686 18.687c.001 10.303-8.382 18.686-18.686 18.686z"/></symbol><symbol fill="currentColor" viewBox="0 0 512 512" id="search" xmlns="http://www.w3.org/2000/svg"><path d="M495 466.2L377.2 348.4c29.2-35.6 46.8-81.2 46.8-130.9C424 103.5 331.5 11 217.5 11 103.4 11 11 103.5 11 217.5S103.4 424 217.5 424c49.7 0 95.2-17.5 130.8-46.7L466.1 495c8 8 20.9 8 28.9 0 8-7.9 8-20.9 0-28.8zm-277.5-83.3C126.2 382.9 52 308.7 52 217.5S126.2 52 217.5 52C308.7 52 383 126.3 383 217.5s-74.3 165.4-165.5 165.4z"/></symbol><symbol viewBox="0 0 549.5 391.75" id="truck" xmlns="http://www.w3.org/2000/svg"><defs><linearGradient id="Безымянный_градиент_89" x1="357.54" x2="357.54" y1="179.08" y2="346.42" gradientTransform="matrix(-1 0 0 1 549.5 0)" gradientUnits="userSpaceOnUse"><stop offset="0" stop-color="#fff" stop-opacity="0"/><stop offset=".09" stop-color="#fefcf8" stop-opacity=".04"/><stop offset=".24" stop-color="#fcf5e5" stop-opacity=".13"/><stop offset=".41" stop-color="#f8e8c5" stop-opacity=".29"/><stop offset=".62" stop-color="#f2d79a" stop-opacity=".51"/><stop offset=".84" stop-color="#ebc263" stop-opacity=".78"/><stop offset="1" stop-color="#e6b138"/></linearGradient><style>.cls-1{fill:#dbd9da}.cls-2{fill:#322e2f}.cls-3{fill:#423e41}.cls-7{fill:#785d43}</style></defs><g id="Слой_2" data-name="Слой 2"><g id="Слой_18" data-name="Слой 18"><path d="M332.27 38.71h34.54a4.62 4.62 0 014.62 4.62 4.63 4.63 0 01-4.62 4.67h-34.54a4.62 4.62 0 01-4.62-4.62 4.62 4.62 0 014.62-4.62z" class="cls-1" transform="rotate(180 349.54 43.335)"/><path d="M339.46 31.25h20.17v28.83h-20.17z" class="cls-1" transform="rotate(-180 349.54 45.665)"/></g><path id="Слой_20" d="M196.13 207.08v7.75l-48-2.08-.3-12.97 48.3 7.3z" class="cls-2" data-name="Слой 20"/><path id="Слой_15" d="M207.25 231.5v-18.13l-74.25-3.7-10 13.75 84.25 8.08z" class="cls-1" data-name="Слой 15"/><path id="Слой_19" d="M263.7 202.28l7.72-4.56-23.31-37.14-7.73 4.55 23.32 37.15z" class="cls-3" data-name="Слой 19"/><rect id="Слой_6" width="16.33" height="34" y="225.75" fill="#a82b0e" data-name="Слой 6" rx="8.17" transform="rotate(-180 8.165 242.75)"/><path id="Слой_12" d="M293.04 213.98l-17.48-44.23-27.89 26.33 24.34 59.67 21.03-41.77z" class="cls-1" data-name="Слой 12"/><path id="Слой_11" d="M124.75 220.33l92.25 8.25v22.5h51.75l26-51.25 27.75 64.25-183.36 3.78-19.85-16.13 5.46-31.4z" class="cls-2" data-name="Слой 11"/><path id="Слой_10" d="M230.85 67.75a11.86 11.86 0 0111.05 7.46l74 183.79H147.26l-20.61-16.76L131 71.72v-.3a3.67 3.67 0 013.67-3.67h96.18m0-12h-96.18A15.66 15.66 0 00119 71.42l-4.5 176.41L143 271h187.33v-8.25L253 70.73a23.91 23.91 0 00-22.18-15z" class="cls-2" data-name="Слой 10"/><g id="Слой_16" data-name="Слой 16"><path d="M335 55.75h31.33v207H335z" class="cls-2" transform="rotate(-180 350.665 159.25)"/><path d="M325.67 55.75h14.92v17.17h-14.92z" class="cls-2" transform="rotate(-180 333.125 64.335)"/></g><path id="Слой_5" fill="#fbd225" d="M18.75 346.42h342.08a14.75 14.75 0 0014.75-14.75v-62.23a9.64 9.64 0 00-9.69-9.64l-211.67 1A32.07 32.07 0 01121 231.29l-4.19-52.21H42.17c-17 0-34 14-33.84 36.34V336a10.43 10.43 0 0010.42 10.42z" data-name="Слой 5"/><path id="Слой_5_копия_" fill="url(#Безымянный_градиент_89)" d="M18.75 346.42h342.08a14.75 14.75 0 0014.75-14.75v-62.23a9.64 9.64 0 00-9.69-9.64l-211.67 1A32.07 32.07 0 01121 231.29l-4.19-52.21H42.17c-17 0-34 14-33.84 36.34V336a10.43 10.43 0 0010.42 10.42z" data-name="Слой 5 (копия)"/><g id="Слой_9" data-name="Слой 9"><rect width="6.25" height="42.5" x="93.5" y="205.33" class="cls-3" rx="3.12" transform="rotate(180 96.625 226.585)"/><rect width="6.25" height="42.5" x="83.33" y="205.33" class="cls-3" rx="3.12" transform="rotate(180 86.46 226.585)"/><rect width="6.25" height="42.5" x="73.54" y="205.33" class="cls-3" rx="3.12" transform="rotate(-180 76.665 226.585)"/><rect width="6.25" height="42.5" x="63.38" y="205.33" class="cls-3" rx="3.12" transform="rotate(-180 66.5 226.585)"/><rect width="6.25" height="42.5" x="52.79" y="205.33" class="cls-3" rx="3.12" transform="rotate(180 55.915 226.585)"/><rect width="6.25" height="42.5" x="42.63" y="205.33" class="cls-3" rx="3.12" transform="rotate(180 45.75 226.585)"/><rect width="6.25" height="42.5" x="32.63" y="205.33" class="cls-3" rx="3.12" transform="rotate(180 35.75 226.585)"/></g><g id="Слой_7" data-name="Слой 7"><circle cx="298.46" cy="331.38" r="60.37" class="cls-2"/><circle cx="298.46" cy="330.63" r="26.45" class="cls-1"/></g><g id="Слой_7_копия_" data-name="Слой 7 (копия)"><circle cx="65.52" cy="354.62" r="37.13" class="cls-2"/><circle cx="65.52" cy="354.17" r="16.26" class="cls-1"/></g><path id="Слой_14" d="M225.42 178.67a4.41 4.41 0 005.94 1.39l36.7-21.64a4.12 4.12 0 001.46-5.75 4.41 4.41 0 00-5.94-1.39l-36.7 21.64a4.12 4.12 0 00-1.46 5.75z" class="cls-2" data-name="Слой 14"/><g id="Слой_17" data-name="Слой 17"><path d="M549.5 357.08h-177l-2.25-255h4.5l11.25 241 163.5 8.5v5.5zM349.54 8a9.67 9.67 0 11-9.67 9.67A9.68 9.68 0 01349.54 8m0-8a17.67 17.67 0 1017.67 17.67A17.67 17.67 0 00349.54 0z" class="cls-2"/></g><g id="Слой_13" data-name="Слой 13"><path d="M146.45 204.57l50.69 4.62c7.85.71 15.15-2.68 15.29-7.63.13-4.95-7-8.73-14.86-8.44l-45.86 1.68a5.32 5.32 0 00-5.26 5l-4.07-.66c-.07 2.62 1.17 5.16 4.07 5.43z" class="cls-7"/><path d="M155.62 198.1l-4.16-52c-.71-8.93-5.38-16.56-10.28-15.89-4.91.67-7.36 9.27-5.65 18.07l6.85 50.8c.63 3.24 3.25 5.43 5.87 5.07l3.08.38c2.61-.32 4.55-3.14 4.29-6.43z" class="cls-7"/></g><g id="Слой_21" data-name="Слой 21"><path d="M343.51 60.08h7.16V259.9h-7.16z" class="cls-3" transform="rotate(-180 347.085 159.99)"/><path d="M354.94 59.57h3.58v199.82h-3.58z" class="cls-3" transform="rotate(-180 356.73 159.48)"/></g></g></symbol><symbol fill="currentColor" viewBox="0 0 481.291 481.291" id="user" xmlns="http://www.w3.org/2000/svg"><path d="M138.814 146.22c3.12 40.976 19.417 23.314 22.779 41.27 5.59 29.848 32.016 51.436 48.466 58.893 9.597 4.348 19.48 6.53 29.871 6.704v.009c.036 0 .072-.004.108-.004s.072.004.108.004v-.009c10.39-.174 20.272-2.355 29.871-6.704 16.45-7.457 42.876-29.045 48.466-58.893 3.362-17.955 19.659-.294 22.779-41.27 0-16.33-8.898-20.394-8.898-20.394s4.523-24.171 6.295-42.77C340.854 59.877 325.129 0 241.25 0c-.367 0-.707.02-1.065.024l-.038-.001V.019l-.108.002-.108-.002v.005l-.038.001c-.358-.005-.698-.024-1.065-.024-83.878 0-99.604 59.877-97.409 83.056 1.771 18.599 6.295 42.77 6.295 42.77s-8.9 4.063-8.9 20.393zM430.313 347.371c-42.308-21.523-103.63-48.406-106.573-49.355-.033-.012-.058-.014-.09-.024a16.363 16.363 0 00-5.504-.953c-7.188 0-13.285 4.604-15.547 11.021l-.036-.021c-10.92 26.315-30.979 73.223-43.434 95.842l-3-63.413s18.705-39.699 20.752-43.336c4.82-8.525.479-15.783-8.557-15.783h-55.36c-9.036 0-13.376 7.258-8.557 15.783 2.048 3.637 20.752 43.336 20.752 43.336l-2.999 63.413c-12.455-22.619-32.514-69.524-43.434-95.842l-.036.021c-2.262-6.414-8.359-11.021-15.547-11.021-1.933 0-3.783.34-5.504.953-.032.012-.057.015-.09.024-2.942.949-64.265 27.832-106.573 49.355-19 9.666-30.467 21.688-30.467 34.34v99.58H460.78v-99.58c-.001-12.652-11.467-24.674-30.467-34.34z"/></symbol></svg>